<mxfile host="app.diagrams.net" agent="Mozilla/5.0 (Windows NT 10.0; Win64; x64) AppleWebKit/537.36 (KHTML, like Gecko) Chrome/135.0.0.0 Safari/537.36" version="26.2.12">
  <diagram name="Trang-1" id="GeauEPpAgHzAcoo6tge-">
    <mxGraphModel dx="1113" dy="477" grid="1" gridSize="10" guides="1" tooltips="1" connect="1" arrows="1" fold="1" page="1" pageScale="1" pageWidth="827" pageHeight="1169" math="0" shadow="0">
      <root>
        <mxCell id="0" />
        <mxCell id="1" parent="0" />
        <mxCell id="4fkGAukz3_3GJtjPrOCw-5" value="Hệ thống" style="html=1;whiteSpace=wrap;verticalAlign=top;" parent="1" vertex="1">
          <mxGeometry x="280" y="3060" width="450" height="580" as="geometry" />
        </mxCell>
        <mxCell id="4fkGAukz3_3GJtjPrOCw-4" value="Hệ thống" style="html=1;whiteSpace=wrap;verticalAlign=top;" parent="1" vertex="1">
          <mxGeometry x="285" y="2620" width="290" height="390" as="geometry" />
        </mxCell>
        <mxCell id="4fkGAukz3_3GJtjPrOCw-3" value="Hệ thống" style="html=1;whiteSpace=wrap;verticalAlign=top;" parent="1" vertex="1">
          <mxGeometry x="280" y="2260" width="490" height="330" as="geometry" />
        </mxCell>
        <mxCell id="4fkGAukz3_3GJtjPrOCw-2" value="Hệ thống" style="html=1;whiteSpace=wrap;verticalAlign=top;" parent="1" vertex="1">
          <mxGeometry x="250" y="1590" width="640" height="560" as="geometry" />
        </mxCell>
        <mxCell id="4fkGAukz3_3GJtjPrOCw-1" value="Hệ thống" style="html=1;whiteSpace=wrap;verticalAlign=top;" parent="1" vertex="1">
          <mxGeometry x="320" y="1000" width="600" height="560" as="geometry" />
        </mxCell>
        <mxCell id="qi5AjcrMhphRuE3cDv4p-1" value="Hệ thống quản lý khóa học" style="html=1;whiteSpace=wrap;verticalAlign=top;" parent="1" vertex="1">
          <mxGeometry x="470" y="20" width="330" height="580" as="geometry" />
        </mxCell>
        <mxCell id="qi5AjcrMhphRuE3cDv4p-2" value="Admin" style="shape=umlActor;verticalLabelPosition=bottom;verticalAlign=top;html=1;" parent="1" vertex="1">
          <mxGeometry x="250" y="120" width="30" height="60" as="geometry" />
        </mxCell>
        <mxCell id="qi5AjcrMhphRuE3cDv4p-3" value="Học viên" style="shape=umlActor;verticalLabelPosition=bottom;verticalAlign=top;html=1;" parent="1" vertex="1">
          <mxGeometry x="250" y="310" width="30" height="60" as="geometry" />
        </mxCell>
        <mxCell id="qi5AjcrMhphRuE3cDv4p-5" value="Quản lý khóa học" style="ellipse;whiteSpace=wrap;html=1;" parent="1" vertex="1">
          <mxGeometry x="560" y="50" width="140" height="70" as="geometry" />
        </mxCell>
        <mxCell id="qi5AjcrMhphRuE3cDv4p-6" value="Quản lý học viên" style="ellipse;whiteSpace=wrap;html=1;" parent="1" vertex="1">
          <mxGeometry x="560" y="140" width="140" height="70" as="geometry" />
        </mxCell>
        <mxCell id="qi5AjcrMhphRuE3cDv4p-7" value="Quản lý đăng ký học" style="ellipse;whiteSpace=wrap;html=1;" parent="1" vertex="1">
          <mxGeometry x="560" y="320" width="140" height="70" as="geometry" />
        </mxCell>
        <mxCell id="qi5AjcrMhphRuE3cDv4p-8" value="Xem thống kê" style="ellipse;whiteSpace=wrap;html=1;" parent="1" vertex="1">
          <mxGeometry x="560" y="420" width="140" height="70" as="geometry" />
        </mxCell>
        <mxCell id="qi5AjcrMhphRuE3cDv4p-9" value="Chức năng học viên" style="ellipse;whiteSpace=wrap;html=1;" parent="1" vertex="1">
          <mxGeometry x="560" y="520" width="140" height="70" as="geometry" />
        </mxCell>
        <mxCell id="qi5AjcrMhphRuE3cDv4p-10" value="Đăng nhập hệ thống" style="ellipse;whiteSpace=wrap;html=1;" parent="1" vertex="1">
          <mxGeometry x="560" y="230" width="140" height="70" as="geometry" />
        </mxCell>
        <mxCell id="qi5AjcrMhphRuE3cDv4p-12" value="" style="endArrow=classic;html=1;rounded=0;exitX=0.5;exitY=0.5;exitDx=0;exitDy=0;exitPerimeter=0;" parent="1" source="qi5AjcrMhphRuE3cDv4p-2" target="qi5AjcrMhphRuE3cDv4p-5" edge="1">
          <mxGeometry width="50" height="50" relative="1" as="geometry">
            <mxPoint x="270" y="150" as="sourcePoint" />
            <mxPoint x="440" y="260" as="targetPoint" />
          </mxGeometry>
        </mxCell>
        <mxCell id="qi5AjcrMhphRuE3cDv4p-13" value="" style="endArrow=classic;html=1;rounded=0;" parent="1" target="qi5AjcrMhphRuE3cDv4p-6" edge="1">
          <mxGeometry width="50" height="50" relative="1" as="geometry">
            <mxPoint x="270" y="150" as="sourcePoint" />
            <mxPoint x="450" y="270" as="targetPoint" />
          </mxGeometry>
        </mxCell>
        <mxCell id="qi5AjcrMhphRuE3cDv4p-14" value="" style="endArrow=classic;html=1;rounded=0;exitX=0.5;exitY=0.5;exitDx=0;exitDy=0;exitPerimeter=0;" parent="1" source="qi5AjcrMhphRuE3cDv4p-2" target="qi5AjcrMhphRuE3cDv4p-10" edge="1">
          <mxGeometry width="50" height="50" relative="1" as="geometry">
            <mxPoint x="410" y="330" as="sourcePoint" />
            <mxPoint x="460" y="280" as="targetPoint" />
          </mxGeometry>
        </mxCell>
        <mxCell id="qi5AjcrMhphRuE3cDv4p-15" value="" style="endArrow=classic;html=1;rounded=0;" parent="1" target="qi5AjcrMhphRuE3cDv4p-7" edge="1">
          <mxGeometry width="50" height="50" relative="1" as="geometry">
            <mxPoint x="265" y="150" as="sourcePoint" />
            <mxPoint x="470" y="290" as="targetPoint" />
          </mxGeometry>
        </mxCell>
        <mxCell id="qi5AjcrMhphRuE3cDv4p-16" value="" style="endArrow=classic;html=1;rounded=0;" parent="1" target="qi5AjcrMhphRuE3cDv4p-8" edge="1">
          <mxGeometry width="50" height="50" relative="1" as="geometry">
            <mxPoint x="265" y="150" as="sourcePoint" />
            <mxPoint x="480" y="300" as="targetPoint" />
          </mxGeometry>
        </mxCell>
        <mxCell id="qi5AjcrMhphRuE3cDv4p-17" value="" style="endArrow=classic;html=1;rounded=0;exitX=0.5;exitY=0.5;exitDx=0;exitDy=0;exitPerimeter=0;" parent="1" source="qi5AjcrMhphRuE3cDv4p-3" target="qi5AjcrMhphRuE3cDv4p-9" edge="1">
          <mxGeometry width="50" height="50" relative="1" as="geometry">
            <mxPoint x="440" y="360" as="sourcePoint" />
            <mxPoint x="490" y="310" as="targetPoint" />
          </mxGeometry>
        </mxCell>
        <mxCell id="qi5AjcrMhphRuE3cDv4p-18" value="" style="endArrow=classic;html=1;rounded=0;exitX=0.5;exitY=0.5;exitDx=0;exitDy=0;exitPerimeter=0;" parent="1" source="qi5AjcrMhphRuE3cDv4p-3" target="qi5AjcrMhphRuE3cDv4p-10" edge="1">
          <mxGeometry width="50" height="50" relative="1" as="geometry">
            <mxPoint x="270" y="340" as="sourcePoint" />
            <mxPoint x="500" y="320" as="targetPoint" />
          </mxGeometry>
        </mxCell>
        <mxCell id="qi5AjcrMhphRuE3cDv4p-19" value="Admin" style="shape=umlActor;verticalLabelPosition=bottom;verticalAlign=top;html=1;outlineConnect=0;" parent="1" vertex="1">
          <mxGeometry x="250" y="680" width="30" height="60" as="geometry" />
        </mxCell>
        <mxCell id="qi5AjcrMhphRuE3cDv4p-20" value="Học viên" style="shape=umlActor;verticalLabelPosition=bottom;verticalAlign=top;html=1;outlineConnect=0;" parent="1" vertex="1">
          <mxGeometry x="250" y="810" width="30" height="60" as="geometry" />
        </mxCell>
        <mxCell id="qi5AjcrMhphRuE3cDv4p-22" value="Hệ thống" style="html=1;whiteSpace=wrap;verticalAlign=top;" parent="1" vertex="1">
          <mxGeometry x="420" y="670" width="240" height="250" as="geometry" />
        </mxCell>
        <mxCell id="qi5AjcrMhphRuE3cDv4p-23" value="Đăng nhập hệ thống" style="ellipse;whiteSpace=wrap;html=1;" parent="1" vertex="1">
          <mxGeometry x="470" y="760" width="140" height="70" as="geometry" />
        </mxCell>
        <mxCell id="qi5AjcrMhphRuE3cDv4p-24" value="" style="endArrow=classic;html=1;rounded=0;exitX=0.5;exitY=0.5;exitDx=0;exitDy=0;exitPerimeter=0;" parent="1" source="qi5AjcrMhphRuE3cDv4p-19" target="qi5AjcrMhphRuE3cDv4p-23" edge="1">
          <mxGeometry width="50" height="50" relative="1" as="geometry">
            <mxPoint x="390" y="810" as="sourcePoint" />
            <mxPoint x="440" y="760" as="targetPoint" />
          </mxGeometry>
        </mxCell>
        <mxCell id="qi5AjcrMhphRuE3cDv4p-25" value="" style="endArrow=classic;html=1;rounded=0;exitX=0.5;exitY=0.5;exitDx=0;exitDy=0;exitPerimeter=0;" parent="1" source="qi5AjcrMhphRuE3cDv4p-20" target="qi5AjcrMhphRuE3cDv4p-23" edge="1">
          <mxGeometry width="50" height="50" relative="1" as="geometry">
            <mxPoint x="390" y="810" as="sourcePoint" />
            <mxPoint x="440" y="760" as="targetPoint" />
          </mxGeometry>
        </mxCell>
        <mxCell id="qi5AjcrMhphRuE3cDv4p-26" value="Admin" style="shape=umlActor;verticalLabelPosition=bottom;verticalAlign=top;html=1;outlineConnect=0;" parent="1" vertex="1">
          <mxGeometry x="210" y="1169" width="30" height="60" as="geometry" />
        </mxCell>
        <mxCell id="qi5AjcrMhphRuE3cDv4p-28" value="Thên khóa học" style="ellipse;whiteSpace=wrap;html=1;" parent="1" vertex="1">
          <mxGeometry x="770" y="1020" width="140" height="70" as="geometry" />
        </mxCell>
        <mxCell id="qi5AjcrMhphRuE3cDv4p-29" value="Sửa khóa học" style="ellipse;whiteSpace=wrap;html=1;" parent="1" vertex="1">
          <mxGeometry x="600" y="1090" width="140" height="70" as="geometry" />
        </mxCell>
        <mxCell id="qi5AjcrMhphRuE3cDv4p-30" value="Xóa khóa học" style="ellipse;whiteSpace=wrap;html=1;" parent="1" vertex="1">
          <mxGeometry x="430" y="1180" width="140" height="70" as="geometry" />
        </mxCell>
        <mxCell id="qi5AjcrMhphRuE3cDv4p-31" value="Hiển thị danh sách khóa học" style="ellipse;whiteSpace=wrap;html=1;" parent="1" vertex="1">
          <mxGeometry x="430" y="1280" width="140" height="70" as="geometry" />
        </mxCell>
        <mxCell id="qi5AjcrMhphRuE3cDv4p-32" value="Tìm kiếm khóa học" style="ellipse;whiteSpace=wrap;html=1;" parent="1" vertex="1">
          <mxGeometry x="430" y="1380" width="140" height="70" as="geometry" />
        </mxCell>
        <mxCell id="qi5AjcrMhphRuE3cDv4p-33" value="Sắp xếp khóa học" style="ellipse;whiteSpace=wrap;html=1;" parent="1" vertex="1">
          <mxGeometry x="430" y="1480" width="140" height="70" as="geometry" />
        </mxCell>
        <mxCell id="qi5AjcrMhphRuE3cDv4p-34" value="" style="endArrow=classic;html=1;rounded=0;exitX=0.5;exitY=0.5;exitDx=0;exitDy=0;exitPerimeter=0;entryX=0;entryY=0.5;entryDx=0;entryDy=0;" parent="1" source="qi5AjcrMhphRuE3cDv4p-26" target="qi5AjcrMhphRuE3cDv4p-28" edge="1">
          <mxGeometry width="50" height="50" relative="1" as="geometry">
            <mxPoint x="390" y="1280" as="sourcePoint" />
            <mxPoint x="440" y="1230" as="targetPoint" />
          </mxGeometry>
        </mxCell>
        <mxCell id="qi5AjcrMhphRuE3cDv4p-35" value="" style="endArrow=classic;html=1;rounded=0;exitX=0.5;exitY=0.5;exitDx=0;exitDy=0;exitPerimeter=0;entryX=0;entryY=0.5;entryDx=0;entryDy=0;" parent="1" source="qi5AjcrMhphRuE3cDv4p-26" target="qi5AjcrMhphRuE3cDv4p-29" edge="1">
          <mxGeometry width="50" height="50" relative="1" as="geometry">
            <mxPoint x="390" y="1280" as="sourcePoint" />
            <mxPoint x="440" y="1230" as="targetPoint" />
          </mxGeometry>
        </mxCell>
        <mxCell id="qi5AjcrMhphRuE3cDv4p-36" value="" style="endArrow=classic;html=1;rounded=0;entryX=0;entryY=0.5;entryDx=0;entryDy=0;exitX=0.5;exitY=0.5;exitDx=0;exitDy=0;exitPerimeter=0;" parent="1" source="qi5AjcrMhphRuE3cDv4p-26" target="qi5AjcrMhphRuE3cDv4p-30" edge="1">
          <mxGeometry width="50" height="50" relative="1" as="geometry">
            <mxPoint x="390" y="1280" as="sourcePoint" />
            <mxPoint x="440" y="1230" as="targetPoint" />
          </mxGeometry>
        </mxCell>
        <mxCell id="qi5AjcrMhphRuE3cDv4p-37" value="" style="endArrow=classic;html=1;rounded=0;exitX=0.5;exitY=0.5;exitDx=0;exitDy=0;exitPerimeter=0;" parent="1" source="qi5AjcrMhphRuE3cDv4p-26" target="qi5AjcrMhphRuE3cDv4p-31" edge="1">
          <mxGeometry width="50" height="50" relative="1" as="geometry">
            <mxPoint x="390" y="1280" as="sourcePoint" />
            <mxPoint x="440" y="1230" as="targetPoint" />
          </mxGeometry>
        </mxCell>
        <mxCell id="qi5AjcrMhphRuE3cDv4p-38" value="" style="endArrow=classic;html=1;rounded=0;exitX=0.5;exitY=0.5;exitDx=0;exitDy=0;exitPerimeter=0;" parent="1" source="qi5AjcrMhphRuE3cDv4p-26" target="qi5AjcrMhphRuE3cDv4p-32" edge="1">
          <mxGeometry width="50" height="50" relative="1" as="geometry">
            <mxPoint x="390" y="1280" as="sourcePoint" />
            <mxPoint x="440" y="1230" as="targetPoint" />
          </mxGeometry>
        </mxCell>
        <mxCell id="qi5AjcrMhphRuE3cDv4p-39" value="" style="endArrow=classic;html=1;rounded=0;exitX=0.5;exitY=0.5;exitDx=0;exitDy=0;exitPerimeter=0;entryX=0.066;entryY=0.288;entryDx=0;entryDy=0;entryPerimeter=0;" parent="1" source="qi5AjcrMhphRuE3cDv4p-26" target="qi5AjcrMhphRuE3cDv4p-33" edge="1">
          <mxGeometry width="50" height="50" relative="1" as="geometry">
            <mxPoint x="390" y="1280" as="sourcePoint" />
            <mxPoint x="440" y="1230" as="targetPoint" />
          </mxGeometry>
        </mxCell>
        <mxCell id="qi5AjcrMhphRuE3cDv4p-40" value="&amp;lt;&amp;lt;includes&amp;gt;&amp;gt;" style="endArrow=open;endSize=12;dashed=1;html=1;rounded=0;" parent="1" source="qi5AjcrMhphRuE3cDv4p-30" target="qi5AjcrMhphRuE3cDv4p-31" edge="1">
          <mxGeometry width="160" relative="1" as="geometry">
            <mxPoint x="330" y="1250" as="sourcePoint" />
            <mxPoint x="490" y="1250" as="targetPoint" />
          </mxGeometry>
        </mxCell>
        <mxCell id="qi5AjcrMhphRuE3cDv4p-41" value="&amp;lt;&amp;lt;includes&amp;gt;&amp;gt;" style="endArrow=open;endSize=12;dashed=1;html=1;rounded=0;entryX=0.94;entryY=0.204;entryDx=0;entryDy=0;entryPerimeter=0;" parent="1" source="qi5AjcrMhphRuE3cDv4p-28" target="qi5AjcrMhphRuE3cDv4p-31" edge="1">
          <mxGeometry width="160" relative="1" as="geometry">
            <mxPoint x="660" y="1040" as="sourcePoint" />
            <mxPoint x="660" y="1270" as="targetPoint" />
          </mxGeometry>
        </mxCell>
        <mxCell id="qi5AjcrMhphRuE3cDv4p-43" value="&amp;lt;&amp;lt;includes&amp;gt;&amp;gt;" style="endArrow=open;endSize=12;dashed=1;html=1;rounded=0;" parent="1" source="qi5AjcrMhphRuE3cDv4p-29" target="qi5AjcrMhphRuE3cDv4p-31" edge="1">
          <mxGeometry width="160" relative="1" as="geometry">
            <mxPoint x="606" y="1040" as="sourcePoint" />
            <mxPoint x="690" y="1200" as="targetPoint" />
          </mxGeometry>
        </mxCell>
        <mxCell id="qi5AjcrMhphRuE3cDv4p-44" value="Admin" style="shape=umlActor;verticalLabelPosition=bottom;verticalAlign=top;html=1;outlineConnect=0;" parent="1" vertex="1">
          <mxGeometry x="160" y="1759" width="30" height="60" as="geometry" />
        </mxCell>
        <mxCell id="qi5AjcrMhphRuE3cDv4p-45" value="Thêm học viên" style="ellipse;whiteSpace=wrap;html=1;" parent="1" vertex="1">
          <mxGeometry x="720" y="1610" width="140" height="70" as="geometry" />
        </mxCell>
        <mxCell id="qi5AjcrMhphRuE3cDv4p-46" value="Sửa học viên" style="ellipse;whiteSpace=wrap;html=1;" parent="1" vertex="1">
          <mxGeometry x="550" y="1680" width="140" height="70" as="geometry" />
        </mxCell>
        <mxCell id="qi5AjcrMhphRuE3cDv4p-47" value="Xóa học viên" style="ellipse;whiteSpace=wrap;html=1;" parent="1" vertex="1">
          <mxGeometry x="380" y="1770" width="140" height="70" as="geometry" />
        </mxCell>
        <mxCell id="qi5AjcrMhphRuE3cDv4p-48" value="Hiển thị danh sách học viên" style="ellipse;whiteSpace=wrap;html=1;" parent="1" vertex="1">
          <mxGeometry x="380" y="1870" width="140" height="70" as="geometry" />
        </mxCell>
        <mxCell id="qi5AjcrMhphRuE3cDv4p-49" value="Tìm kiếm học viên" style="ellipse;whiteSpace=wrap;html=1;" parent="1" vertex="1">
          <mxGeometry x="380" y="1970" width="140" height="70" as="geometry" />
        </mxCell>
        <mxCell id="qi5AjcrMhphRuE3cDv4p-50" value="Sắp xếp học viên" style="ellipse;whiteSpace=wrap;html=1;" parent="1" vertex="1">
          <mxGeometry x="380" y="2070" width="140" height="70" as="geometry" />
        </mxCell>
        <mxCell id="qi5AjcrMhphRuE3cDv4p-51" value="" style="endArrow=classic;html=1;rounded=0;exitX=0.5;exitY=0.5;exitDx=0;exitDy=0;exitPerimeter=0;entryX=0;entryY=0.5;entryDx=0;entryDy=0;" parent="1" source="qi5AjcrMhphRuE3cDv4p-44" target="qi5AjcrMhphRuE3cDv4p-45" edge="1">
          <mxGeometry width="50" height="50" relative="1" as="geometry">
            <mxPoint x="340" y="1870" as="sourcePoint" />
            <mxPoint x="390" y="1820" as="targetPoint" />
          </mxGeometry>
        </mxCell>
        <mxCell id="qi5AjcrMhphRuE3cDv4p-52" value="" style="endArrow=classic;html=1;rounded=0;exitX=0.5;exitY=0.5;exitDx=0;exitDy=0;exitPerimeter=0;entryX=0;entryY=0.5;entryDx=0;entryDy=0;" parent="1" source="qi5AjcrMhphRuE3cDv4p-44" target="qi5AjcrMhphRuE3cDv4p-46" edge="1">
          <mxGeometry width="50" height="50" relative="1" as="geometry">
            <mxPoint x="340" y="1870" as="sourcePoint" />
            <mxPoint x="390" y="1820" as="targetPoint" />
          </mxGeometry>
        </mxCell>
        <mxCell id="qi5AjcrMhphRuE3cDv4p-53" value="" style="endArrow=classic;html=1;rounded=0;entryX=0;entryY=0.5;entryDx=0;entryDy=0;exitX=0.5;exitY=0.5;exitDx=0;exitDy=0;exitPerimeter=0;" parent="1" source="qi5AjcrMhphRuE3cDv4p-44" target="qi5AjcrMhphRuE3cDv4p-47" edge="1">
          <mxGeometry width="50" height="50" relative="1" as="geometry">
            <mxPoint x="340" y="1870" as="sourcePoint" />
            <mxPoint x="390" y="1820" as="targetPoint" />
          </mxGeometry>
        </mxCell>
        <mxCell id="qi5AjcrMhphRuE3cDv4p-54" value="" style="endArrow=classic;html=1;rounded=0;exitX=0.5;exitY=0.5;exitDx=0;exitDy=0;exitPerimeter=0;" parent="1" source="qi5AjcrMhphRuE3cDv4p-44" target="qi5AjcrMhphRuE3cDv4p-48" edge="1">
          <mxGeometry width="50" height="50" relative="1" as="geometry">
            <mxPoint x="340" y="1870" as="sourcePoint" />
            <mxPoint x="390" y="1820" as="targetPoint" />
          </mxGeometry>
        </mxCell>
        <mxCell id="qi5AjcrMhphRuE3cDv4p-55" value="" style="endArrow=classic;html=1;rounded=0;exitX=0.5;exitY=0.5;exitDx=0;exitDy=0;exitPerimeter=0;" parent="1" source="qi5AjcrMhphRuE3cDv4p-44" target="qi5AjcrMhphRuE3cDv4p-49" edge="1">
          <mxGeometry width="50" height="50" relative="1" as="geometry">
            <mxPoint x="340" y="1870" as="sourcePoint" />
            <mxPoint x="390" y="1820" as="targetPoint" />
          </mxGeometry>
        </mxCell>
        <mxCell id="qi5AjcrMhphRuE3cDv4p-56" value="" style="endArrow=classic;html=1;rounded=0;exitX=0.5;exitY=0.5;exitDx=0;exitDy=0;exitPerimeter=0;entryX=0.066;entryY=0.288;entryDx=0;entryDy=0;entryPerimeter=0;" parent="1" source="qi5AjcrMhphRuE3cDv4p-44" target="qi5AjcrMhphRuE3cDv4p-50" edge="1">
          <mxGeometry width="50" height="50" relative="1" as="geometry">
            <mxPoint x="340" y="1870" as="sourcePoint" />
            <mxPoint x="390" y="1820" as="targetPoint" />
          </mxGeometry>
        </mxCell>
        <mxCell id="qi5AjcrMhphRuE3cDv4p-57" value="&amp;lt;&amp;lt;includes&amp;gt;&amp;gt;" style="endArrow=open;endSize=12;dashed=1;html=1;rounded=0;" parent="1" source="qi5AjcrMhphRuE3cDv4p-47" target="qi5AjcrMhphRuE3cDv4p-48" edge="1">
          <mxGeometry width="160" relative="1" as="geometry">
            <mxPoint x="280" y="1840" as="sourcePoint" />
            <mxPoint x="440" y="1840" as="targetPoint" />
          </mxGeometry>
        </mxCell>
        <mxCell id="qi5AjcrMhphRuE3cDv4p-58" value="&amp;lt;&amp;lt;includes&amp;gt;&amp;gt;" style="endArrow=open;endSize=12;dashed=1;html=1;rounded=0;entryX=0.94;entryY=0.204;entryDx=0;entryDy=0;entryPerimeter=0;" parent="1" source="qi5AjcrMhphRuE3cDv4p-45" target="qi5AjcrMhphRuE3cDv4p-48" edge="1">
          <mxGeometry width="160" relative="1" as="geometry">
            <mxPoint x="610" y="1630" as="sourcePoint" />
            <mxPoint x="610" y="1860" as="targetPoint" />
          </mxGeometry>
        </mxCell>
        <mxCell id="qi5AjcrMhphRuE3cDv4p-59" value="&amp;lt;&amp;lt;includes&amp;gt;&amp;gt;" style="endArrow=open;endSize=12;dashed=1;html=1;rounded=0;" parent="1" source="qi5AjcrMhphRuE3cDv4p-46" target="qi5AjcrMhphRuE3cDv4p-48" edge="1">
          <mxGeometry width="160" relative="1" as="geometry">
            <mxPoint x="556" y="1630" as="sourcePoint" />
            <mxPoint x="640" y="1790" as="targetPoint" />
          </mxGeometry>
        </mxCell>
        <mxCell id="qi5AjcrMhphRuE3cDv4p-60" value="Actor" style="shape=umlActor;verticalLabelPosition=bottom;verticalAlign=top;html=1;" parent="1" vertex="1">
          <mxGeometry x="210" y="2330" width="30" height="60" as="geometry" />
        </mxCell>
        <mxCell id="qi5AjcrMhphRuE3cDv4p-61" value="Duyệt đăng ký" style="ellipse;whiteSpace=wrap;html=1;" parent="1" vertex="1">
          <mxGeometry x="600" y="2280" width="140" height="70" as="geometry" />
        </mxCell>
        <mxCell id="qi5AjcrMhphRuE3cDv4p-62" value="Xóa học viên khỏi khóa học" style="ellipse;whiteSpace=wrap;html=1;" parent="1" vertex="1">
          <mxGeometry x="380" y="2350" width="140" height="70" as="geometry" />
        </mxCell>
        <mxCell id="qi5AjcrMhphRuE3cDv4p-63" value="&amp;nbsp;Hiển thị danh sách học viên theo khóa học" style="ellipse;whiteSpace=wrap;html=1;" parent="1" vertex="1">
          <mxGeometry x="380" y="2490" width="140" height="70" as="geometry" />
        </mxCell>
        <mxCell id="qi5AjcrMhphRuE3cDv4p-64" value="" style="endArrow=classic;html=1;rounded=0;exitX=0.5;exitY=0.5;exitDx=0;exitDy=0;exitPerimeter=0;" parent="1" source="qi5AjcrMhphRuE3cDv4p-60" target="qi5AjcrMhphRuE3cDv4p-61" edge="1">
          <mxGeometry width="50" height="50" relative="1" as="geometry">
            <mxPoint x="410" y="2370" as="sourcePoint" />
            <mxPoint x="460" y="2320" as="targetPoint" />
          </mxGeometry>
        </mxCell>
        <mxCell id="qi5AjcrMhphRuE3cDv4p-65" value="" style="endArrow=classic;html=1;rounded=0;exitX=0.5;exitY=0.5;exitDx=0;exitDy=0;exitPerimeter=0;" parent="1" source="qi5AjcrMhphRuE3cDv4p-60" target="qi5AjcrMhphRuE3cDv4p-62" edge="1">
          <mxGeometry width="50" height="50" relative="1" as="geometry">
            <mxPoint x="410" y="2370" as="sourcePoint" />
            <mxPoint x="460" y="2320" as="targetPoint" />
          </mxGeometry>
        </mxCell>
        <mxCell id="qi5AjcrMhphRuE3cDv4p-66" value="" style="endArrow=classic;html=1;rounded=0;exitX=0.5;exitY=0.5;exitDx=0;exitDy=0;exitPerimeter=0;" parent="1" source="qi5AjcrMhphRuE3cDv4p-60" target="qi5AjcrMhphRuE3cDv4p-63" edge="1">
          <mxGeometry width="50" height="50" relative="1" as="geometry">
            <mxPoint x="410" y="2370" as="sourcePoint" />
            <mxPoint x="460" y="2320" as="targetPoint" />
          </mxGeometry>
        </mxCell>
        <mxCell id="qi5AjcrMhphRuE3cDv4p-67" value="&amp;lt;&amp;lt;includes&amp;gt;&amp;gt;" style="endArrow=open;endSize=12;dashed=1;html=1;rounded=0;" parent="1" source="qi5AjcrMhphRuE3cDv4p-61" target="qi5AjcrMhphRuE3cDv4p-63" edge="1">
          <mxGeometry width="160" relative="1" as="geometry">
            <mxPoint x="360" y="2340" as="sourcePoint" />
            <mxPoint x="520" y="2340" as="targetPoint" />
          </mxGeometry>
        </mxCell>
        <mxCell id="qi5AjcrMhphRuE3cDv4p-68" value="&amp;lt;&amp;lt;includes&amp;gt;&amp;gt;" style="endArrow=open;endSize=12;dashed=1;html=1;rounded=0;" parent="1" source="qi5AjcrMhphRuE3cDv4p-62" target="qi5AjcrMhphRuE3cDv4p-63" edge="1">
          <mxGeometry width="160" relative="1" as="geometry">
            <mxPoint x="360" y="2340" as="sourcePoint" />
            <mxPoint x="520" y="2340" as="targetPoint" />
          </mxGeometry>
        </mxCell>
        <mxCell id="qi5AjcrMhphRuE3cDv4p-69" value="Actor" style="shape=umlActor;verticalLabelPosition=bottom;verticalAlign=top;html=1;" parent="1" vertex="1">
          <mxGeometry x="190" y="2810" width="30" height="60" as="geometry" />
        </mxCell>
        <mxCell id="qi5AjcrMhphRuE3cDv4p-70" value="Thống kê tổng quan" style="ellipse;whiteSpace=wrap;html=1;" parent="1" vertex="1">
          <mxGeometry x="370" y="2660" width="140" height="70" as="geometry" />
        </mxCell>
        <mxCell id="qi5AjcrMhphRuE3cDv4p-71" value="Thống kê theo khóa học" style="ellipse;whiteSpace=wrap;html=1;" parent="1" vertex="1">
          <mxGeometry x="370" y="2750" width="140" height="70" as="geometry" />
        </mxCell>
        <mxCell id="qi5AjcrMhphRuE3cDv4p-72" value="Top 5 khóa học" style="ellipse;whiteSpace=wrap;html=1;" parent="1" vertex="1">
          <mxGeometry x="370" y="2840" width="140" height="70" as="geometry" />
        </mxCell>
        <mxCell id="qi5AjcrMhphRuE3cDv4p-73" value="Khóa học &amp;gt; 10 học viên" style="ellipse;whiteSpace=wrap;html=1;" parent="1" vertex="1">
          <mxGeometry x="370" y="2930" width="140" height="70" as="geometry" />
        </mxCell>
        <mxCell id="qi5AjcrMhphRuE3cDv4p-74" value="" style="endArrow=classic;html=1;rounded=0;exitX=0.5;exitY=0.5;exitDx=0;exitDy=0;exitPerimeter=0;" parent="1" source="qi5AjcrMhphRuE3cDv4p-69" target="qi5AjcrMhphRuE3cDv4p-70" edge="1">
          <mxGeometry width="50" height="50" relative="1" as="geometry">
            <mxPoint x="410" y="2950" as="sourcePoint" />
            <mxPoint x="460" y="2900" as="targetPoint" />
          </mxGeometry>
        </mxCell>
        <mxCell id="qi5AjcrMhphRuE3cDv4p-75" value="" style="endArrow=classic;html=1;rounded=0;exitX=0.5;exitY=0.5;exitDx=0;exitDy=0;exitPerimeter=0;" parent="1" source="qi5AjcrMhphRuE3cDv4p-69" target="qi5AjcrMhphRuE3cDv4p-71" edge="1">
          <mxGeometry width="50" height="50" relative="1" as="geometry">
            <mxPoint x="410" y="2950" as="sourcePoint" />
            <mxPoint x="460" y="2900" as="targetPoint" />
          </mxGeometry>
        </mxCell>
        <mxCell id="qi5AjcrMhphRuE3cDv4p-76" value="" style="endArrow=classic;html=1;rounded=0;exitX=0.5;exitY=0.5;exitDx=0;exitDy=0;exitPerimeter=0;" parent="1" source="qi5AjcrMhphRuE3cDv4p-69" target="qi5AjcrMhphRuE3cDv4p-72" edge="1">
          <mxGeometry width="50" height="50" relative="1" as="geometry">
            <mxPoint x="410" y="2950" as="sourcePoint" />
            <mxPoint x="460" y="2900" as="targetPoint" />
          </mxGeometry>
        </mxCell>
        <mxCell id="qi5AjcrMhphRuE3cDv4p-77" value="" style="endArrow=classic;html=1;rounded=0;exitX=0.5;exitY=0.5;exitDx=0;exitDy=0;exitPerimeter=0;" parent="1" source="qi5AjcrMhphRuE3cDv4p-69" target="qi5AjcrMhphRuE3cDv4p-73" edge="1">
          <mxGeometry width="50" height="50" relative="1" as="geometry">
            <mxPoint x="410" y="2950" as="sourcePoint" />
            <mxPoint x="460" y="2900" as="targetPoint" />
          </mxGeometry>
        </mxCell>
        <mxCell id="qi5AjcrMhphRuE3cDv4p-78" value="Actor" style="shape=umlActor;verticalLabelPosition=bottom;verticalAlign=top;html=1;outlineConnect=0;" parent="1" vertex="1">
          <mxGeometry x="170" y="3310" width="30" height="60" as="geometry" />
        </mxCell>
        <mxCell id="qi5AjcrMhphRuE3cDv4p-81" value="Đăng ký khóa học" style="ellipse;whiteSpace=wrap;html=1;" parent="1" vertex="1">
          <mxGeometry x="550" y="3080" width="140" height="70" as="geometry" />
        </mxCell>
        <mxCell id="qi5AjcrMhphRuE3cDv4p-82" value="Hủy đăng ký" style="ellipse;whiteSpace=wrap;html=1;" parent="1" vertex="1">
          <mxGeometry x="440" y="3170" width="140" height="70" as="geometry" />
        </mxCell>
        <mxCell id="qi5AjcrMhphRuE3cDv4p-83" value="Danh sách đã đăng ký" style="ellipse;whiteSpace=wrap;html=1;" parent="1" vertex="1">
          <mxGeometry x="360" y="3270" width="140" height="70" as="geometry" />
        </mxCell>
        <mxCell id="qi5AjcrMhphRuE3cDv4p-84" value="Đề xuất khóa học" style="ellipse;whiteSpace=wrap;html=1;" parent="1" vertex="1">
          <mxGeometry x="350" y="3360" width="140" height="70" as="geometry" />
        </mxCell>
        <mxCell id="qi5AjcrMhphRuE3cDv4p-85" value="Xem dánh sách khóa học" style="ellipse;whiteSpace=wrap;html=1;" parent="1" vertex="1">
          <mxGeometry x="370" y="3480" width="140" height="70" as="geometry" />
        </mxCell>
        <mxCell id="qi5AjcrMhphRuE3cDv4p-86" value="Đổi mật khẩu" style="ellipse;whiteSpace=wrap;html=1;" parent="1" vertex="1">
          <mxGeometry x="370" y="3560" width="140" height="70" as="geometry" />
        </mxCell>
        <mxCell id="qi5AjcrMhphRuE3cDv4p-87" value="" style="endArrow=classic;html=1;rounded=0;exitX=0.5;exitY=0.5;exitDx=0;exitDy=0;exitPerimeter=0;entryX=0;entryY=0.5;entryDx=0;entryDy=0;" parent="1" source="qi5AjcrMhphRuE3cDv4p-78" target="qi5AjcrMhphRuE3cDv4p-81" edge="1">
          <mxGeometry width="50" height="50" relative="1" as="geometry">
            <mxPoint x="410" y="3380" as="sourcePoint" />
            <mxPoint x="460" y="3330" as="targetPoint" />
          </mxGeometry>
        </mxCell>
        <mxCell id="qi5AjcrMhphRuE3cDv4p-88" value="" style="endArrow=classic;html=1;rounded=0;exitX=0.5;exitY=0.5;exitDx=0;exitDy=0;exitPerimeter=0;entryX=0;entryY=0.5;entryDx=0;entryDy=0;" parent="1" source="qi5AjcrMhphRuE3cDv4p-78" target="qi5AjcrMhphRuE3cDv4p-82" edge="1">
          <mxGeometry width="50" height="50" relative="1" as="geometry">
            <mxPoint x="410" y="3380" as="sourcePoint" />
            <mxPoint x="460" y="3330" as="targetPoint" />
          </mxGeometry>
        </mxCell>
        <mxCell id="qi5AjcrMhphRuE3cDv4p-89" value="" style="endArrow=classic;html=1;rounded=0;exitX=0.5;exitY=0.5;exitDx=0;exitDy=0;exitPerimeter=0;" parent="1" source="qi5AjcrMhphRuE3cDv4p-78" target="qi5AjcrMhphRuE3cDv4p-83" edge="1">
          <mxGeometry width="50" height="50" relative="1" as="geometry">
            <mxPoint x="410" y="3380" as="sourcePoint" />
            <mxPoint x="460" y="3330" as="targetPoint" />
          </mxGeometry>
        </mxCell>
        <mxCell id="qi5AjcrMhphRuE3cDv4p-90" value="" style="endArrow=classic;html=1;rounded=0;exitX=0.5;exitY=0.5;exitDx=0;exitDy=0;exitPerimeter=0;" parent="1" source="qi5AjcrMhphRuE3cDv4p-78" target="qi5AjcrMhphRuE3cDv4p-84" edge="1">
          <mxGeometry width="50" height="50" relative="1" as="geometry">
            <mxPoint x="410" y="3380" as="sourcePoint" />
            <mxPoint x="460" y="3330" as="targetPoint" />
          </mxGeometry>
        </mxCell>
        <mxCell id="qi5AjcrMhphRuE3cDv4p-91" value="" style="endArrow=classic;html=1;rounded=0;exitX=0.5;exitY=0.5;exitDx=0;exitDy=0;exitPerimeter=0;entryX=0;entryY=0;entryDx=0;entryDy=0;" parent="1" source="qi5AjcrMhphRuE3cDv4p-78" target="qi5AjcrMhphRuE3cDv4p-85" edge="1">
          <mxGeometry width="50" height="50" relative="1" as="geometry">
            <mxPoint x="410" y="3380" as="sourcePoint" />
            <mxPoint x="460" y="3330" as="targetPoint" />
          </mxGeometry>
        </mxCell>
        <mxCell id="qi5AjcrMhphRuE3cDv4p-92" value="" style="endArrow=classic;html=1;rounded=0;exitX=0.5;exitY=0.5;exitDx=0;exitDy=0;exitPerimeter=0;entryX=0.024;entryY=0.255;entryDx=0;entryDy=0;entryPerimeter=0;" parent="1" source="qi5AjcrMhphRuE3cDv4p-78" edge="1">
          <mxGeometry width="50" height="50" relative="1" as="geometry">
            <mxPoint x="410" y="3380" as="sourcePoint" />
            <mxPoint x="373.3599999999999" y="3587.8500000000004" as="targetPoint" />
          </mxGeometry>
        </mxCell>
        <mxCell id="qi5AjcrMhphRuE3cDv4p-93" value="&amp;lt;&amp;lt;includes&amp;gt;&amp;gt;" style="endArrow=open;endSize=12;dashed=1;html=1;rounded=0;entryX=0.982;entryY=0.33;entryDx=0;entryDy=0;entryPerimeter=0;" parent="1" source="qi5AjcrMhphRuE3cDv4p-81" target="qi5AjcrMhphRuE3cDv4p-85" edge="1">
          <mxGeometry width="160" relative="1" as="geometry">
            <mxPoint x="590" y="3220" as="sourcePoint" />
            <mxPoint x="520" y="3350" as="targetPoint" />
          </mxGeometry>
        </mxCell>
        <mxCell id="qi5AjcrMhphRuE3cDv4p-94" value="&amp;lt;&amp;lt;includes&amp;gt;&amp;gt;" style="endArrow=open;endSize=12;dashed=1;html=1;rounded=0;" parent="1" source="qi5AjcrMhphRuE3cDv4p-82" target="qi5AjcrMhphRuE3cDv4p-83" edge="1">
          <mxGeometry width="160" relative="1" as="geometry">
            <mxPoint x="360" y="3350" as="sourcePoint" />
            <mxPoint x="520" y="3350" as="targetPoint" />
          </mxGeometry>
        </mxCell>
        <mxCell id="qi5AjcrMhphRuE3cDv4p-95" value="&amp;lt;&amp;lt;extends&amp;gt;&amp;gt;" style="endArrow=open;endSize=12;dashed=1;html=1;rounded=0;" parent="1" source="qi5AjcrMhphRuE3cDv4p-84" target="qi5AjcrMhphRuE3cDv4p-85" edge="1">
          <mxGeometry width="160" relative="1" as="geometry">
            <mxPoint x="360" y="3350" as="sourcePoint" />
            <mxPoint x="520" y="3350" as="targetPoint" />
          </mxGeometry>
        </mxCell>
        <mxCell id="nThOQ2KgZLxcGQNvvFtE-1" value="&lt;i&gt;&amp;lt;&amp;lt;User&amp;gt;&amp;gt;&lt;/i&gt;" style="swimlane;fontStyle=1;align=center;verticalAlign=top;childLayout=stackLayout;horizontal=1;startSize=26;horizontalStack=0;resizeParent=1;resizeParentMax=0;resizeLast=0;collapsible=1;marginBottom=0;whiteSpace=wrap;html=1;" parent="1" vertex="1">
          <mxGeometry x="350" y="3740" width="540" height="280" as="geometry" />
        </mxCell>
        <mxCell id="nThOQ2KgZLxcGQNvvFtE-2" value="&lt;pre style=&quot;font-family: Menlo, &amp;quot;Roboto Mono&amp;quot;, &amp;quot;Courier New&amp;quot;, Courier, monospace, Inter, sans-serif; overflow: auto; padding: 9.144px 13.716px; text-wrap-mode: wrap; word-break: break-all; font-size: 12.573px; margin-top: 0px !important; margin-bottom: 0px !important;&quot;&gt;&lt;pre style=&quot;font-family: Menlo, &amp;quot;Roboto Mono&amp;quot;, &amp;quot;Courier New&amp;quot;, Courier, monospace, Inter, sans-serif; overflow: auto; padding: 9.144px 13.716px; text-wrap-mode: wrap; word-break: break-all; font-size: 12.573px; margin-top: 0px !important; margin-bottom: 0px !important;&quot;&gt;&lt;font style=&quot;color: rgb(0, 0, 0);&quot;&gt;-id&lt;span style=&quot;color: rgb(129, 161, 193);&quot; class=&quot;token operator&quot;&gt;:&lt;/span&gt; int&lt;br&gt;-username&lt;span style=&quot;color: rgb(129, 161, 193);&quot; class=&quot;token operator&quot;&gt;:&lt;/span&gt; string&lt;br&gt;-password&lt;span style=&quot;color: rgb(129, 161, 193);&quot; class=&quot;token operator&quot;&gt;:&lt;/span&gt; string&lt;br&gt;-email&lt;span style=&quot;color: rgb(129, 161, 193);&quot; class=&quot;token operator&quot;&gt;:&lt;/span&gt; string&lt;br&gt;-phone&lt;span style=&quot;color: rgb(129, 161, 193);&quot; class=&quot;token operator&quot;&gt;:&lt;/span&gt; string&lt;br&gt;-createdAt&lt;span style=&quot;color: rgb(129, 161, 193);&quot; class=&quot;token operator&quot;&gt;:&lt;/span&gt; DateTime&lt;/font&gt;&lt;/pre&gt;&lt;/pre&gt;" style="text;strokeColor=none;fillColor=none;align=left;verticalAlign=top;spacingLeft=4;spacingRight=4;overflow=hidden;rotatable=0;points=[[0,0.5],[1,0.5]];portConstraint=eastwest;whiteSpace=wrap;html=1;" parent="nThOQ2KgZLxcGQNvvFtE-1" vertex="1">
          <mxGeometry y="26" width="540" height="124" as="geometry" />
        </mxCell>
        <mxCell id="nThOQ2KgZLxcGQNvvFtE-3" value="" style="line;strokeWidth=1;fillColor=none;align=left;verticalAlign=middle;spacingTop=-1;spacingLeft=3;spacingRight=3;rotatable=0;labelPosition=right;points=[];portConstraint=eastwest;strokeColor=inherit;" parent="nThOQ2KgZLxcGQNvvFtE-1" vertex="1">
          <mxGeometry y="150" width="540" height="8" as="geometry" />
        </mxCell>
        <mxCell id="nThOQ2KgZLxcGQNvvFtE-4" value="&lt;pre style=&quot;font-family: Menlo, &amp;quot;Roboto Mono&amp;quot;, &amp;quot;Courier New&amp;quot;, Courier, monospace, Inter, sans-serif; overflow: auto; padding: 9.144px 13.716px; text-wrap-mode: wrap; word-break: break-all; font-size: 12.573px; margin-top: 0px !important; margin-bottom: 0px !important;&quot;&gt;&lt;font style=&quot;color: rgb(0, 0, 0);&quot;&gt;+login&lt;span class=&quot;token text string&quot;&gt;(username: string, password: string)&lt;/span&gt;&lt;span class=&quot;token operator&quot;&gt;:&lt;/span&gt; boolean&lt;br&gt;+logout&lt;span class=&quot;token punctuation&quot;&gt;(&lt;/span&gt;&lt;span class=&quot;token punctuation&quot;&gt;)&lt;/span&gt;&lt;span class=&quot;token operator&quot;&gt;:&lt;/span&gt; void&lt;br&gt;+changePassword&lt;span class=&quot;token text string&quot;&gt;(oldPassword: string, newPassword: string)&lt;/span&gt;&lt;span class=&quot;token operator&quot;&gt;:&lt;/span&gt; boolean&lt;br&gt;+getProfile&lt;span class=&quot;token punctuation&quot;&gt;(&lt;/span&gt;&lt;span class=&quot;token punctuation&quot;&gt;)&lt;/span&gt;&lt;span class=&quot;token operator&quot;&gt;:&lt;/span&gt; User&lt;br&gt;+updateProfile&lt;span class=&quot;token text string&quot;&gt;(profileData: Map)&lt;/span&gt;&lt;span class=&quot;token operator&quot;&gt;:&lt;/span&gt; boolean&lt;/font&gt;&lt;/pre&gt;" style="text;strokeColor=none;fillColor=none;align=left;verticalAlign=top;spacingLeft=4;spacingRight=4;overflow=hidden;rotatable=0;points=[[0,0.5],[1,0.5]];portConstraint=eastwest;whiteSpace=wrap;html=1;" parent="nThOQ2KgZLxcGQNvvFtE-1" vertex="1">
          <mxGeometry y="158" width="540" height="122" as="geometry" />
        </mxCell>
        <mxCell id="nThOQ2KgZLxcGQNvvFtE-5" value="Admin" style="swimlane;fontStyle=1;align=center;verticalAlign=top;childLayout=stackLayout;horizontal=1;startSize=26;horizontalStack=0;resizeParent=1;resizeParentMax=0;resizeLast=0;collapsible=1;marginBottom=0;whiteSpace=wrap;html=1;" parent="1" vertex="1">
          <mxGeometry x="80" y="4060" width="470" height="250" as="geometry" />
        </mxCell>
        <mxCell id="nThOQ2KgZLxcGQNvvFtE-6" value="&lt;pre style=&quot;font-family: Menlo, &amp;quot;Roboto Mono&amp;quot;, &amp;quot;Courier New&amp;quot;, Courier, monospace, Inter, sans-serif; overflow: auto; padding: 9.144px 13.716px; text-wrap-mode: wrap; word-break: break-all; font-size: 12.573px; margin-top: 0px !important; margin-bottom: 0px !important;&quot;&gt;&lt;font style=&quot;color: rgb(0, 0, 0);&quot;&gt;&lt;font&gt;-adminId&lt;span style=&quot;&quot; class=&quot;token operator&quot;&gt;:&lt;/span&gt; int&lt;br&gt;&lt;/font&gt;&lt;span&gt;-fullName&lt;span class=&quot;token operator&quot;&gt;:&lt;/span&gt; string&lt;br&gt;-privilegeLevel&lt;span class=&quot;token operator&quot;&gt;:&lt;/span&gt; int&lt;/span&gt;&lt;/font&gt;&lt;/pre&gt;" style="text;strokeColor=none;fillColor=none;align=left;verticalAlign=top;spacingLeft=4;spacingRight=4;overflow=hidden;rotatable=0;points=[[0,0.5],[1,0.5]];portConstraint=eastwest;whiteSpace=wrap;html=1;" parent="nThOQ2KgZLxcGQNvvFtE-5" vertex="1">
          <mxGeometry y="26" width="470" height="74" as="geometry" />
        </mxCell>
        <mxCell id="nThOQ2KgZLxcGQNvvFtE-7" value="" style="line;strokeWidth=1;fillColor=none;align=left;verticalAlign=middle;spacingTop=-1;spacingLeft=3;spacingRight=3;rotatable=0;labelPosition=right;points=[];portConstraint=eastwest;strokeColor=inherit;" parent="nThOQ2KgZLxcGQNvvFtE-5" vertex="1">
          <mxGeometry y="100" width="470" height="8" as="geometry" />
        </mxCell>
        <mxCell id="nThOQ2KgZLxcGQNvvFtE-8" value="&lt;pre style=&quot;font-family: Menlo, &amp;quot;Roboto Mono&amp;quot;, &amp;quot;Courier New&amp;quot;, Courier, monospace, Inter, sans-serif; overflow: auto; padding: 9.144px 13.716px; text-wrap-mode: wrap; word-break: break-all; font-size: 12.573px; margin-top: 0px !important; margin-bottom: 0px !important;&quot;&gt;&lt;font style=&quot;color: rgb(0, 0, 0);&quot;&gt;+addCourse&lt;span style=&quot;&quot; class=&quot;token text string&quot;&gt;(course: Course)&lt;/span&gt;&lt;span style=&quot;&quot; class=&quot;token operator&quot;&gt;:&lt;/span&gt; boolean&lt;br&gt;+updateCourse&lt;span style=&quot;&quot; class=&quot;token text string&quot;&gt;(courseId: int, courseData: Map)&lt;/span&gt;&lt;span style=&quot;&quot; class=&quot;token operator&quot;&gt;:&lt;/span&gt; boolean&lt;br&gt;+deleteCourse&lt;span style=&quot;&quot; class=&quot;token text string&quot;&gt;(courseId: int)&lt;/span&gt;&lt;span style=&quot;&quot; class=&quot;token operator&quot;&gt;:&lt;/span&gt; boolean&lt;br&gt;+approveRegistration&lt;span style=&quot;&quot; class=&quot;token text string&quot;&gt;(registrationId: int)&lt;/span&gt;&lt;span style=&quot;&quot; class=&quot;token operator&quot;&gt;:&lt;/span&gt; boolean&lt;br&gt;+rejectRegistration&lt;span style=&quot;&quot; class=&quot;token text string&quot;&gt;(registrationId: int)&lt;/span&gt;&lt;span style=&quot;&quot; class=&quot;token operator&quot;&gt;:&lt;/span&gt; boolean&lt;br&gt;+generateStatistics&lt;span style=&quot;&quot; class=&quot;token text string&quot;&gt;(reportType: string)&lt;/span&gt;&lt;span style=&quot;&quot; class=&quot;token operator&quot;&gt;:&lt;/span&gt; StatisticsReport&lt;br&gt;+searchStudents&lt;span style=&quot;&quot; class=&quot;token text string&quot;&gt;(criteria: Map)&lt;/span&gt;&lt;span style=&quot;&quot; class=&quot;token operator&quot;&gt;:&lt;/span&gt; Student[]&lt;br&gt;+manageStudent&lt;span style=&quot;&quot; class=&quot;token text string&quot;&gt;(studentId: int, action: string)&lt;/span&gt;&lt;span style=&quot;&quot; class=&quot;token operator&quot;&gt;:&lt;/span&gt; boolean&lt;/font&gt;&lt;/pre&gt;" style="text;strokeColor=none;fillColor=none;align=left;verticalAlign=top;spacingLeft=4;spacingRight=4;overflow=hidden;rotatable=0;points=[[0,0.5],[1,0.5]];portConstraint=eastwest;whiteSpace=wrap;html=1;" parent="nThOQ2KgZLxcGQNvvFtE-5" vertex="1">
          <mxGeometry y="108" width="470" height="142" as="geometry" />
        </mxCell>
        <mxCell id="nThOQ2KgZLxcGQNvvFtE-9" value="Student" style="swimlane;fontStyle=1;align=center;verticalAlign=top;childLayout=stackLayout;horizontal=1;startSize=26;horizontalStack=0;resizeParent=1;resizeParentMax=0;resizeLast=0;collapsible=1;marginBottom=0;whiteSpace=wrap;html=1;" parent="1" vertex="1">
          <mxGeometry x="1050" y="4300" width="440" height="240" as="geometry" />
        </mxCell>
        <mxCell id="nThOQ2KgZLxcGQNvvFtE-10" value="&lt;pre style=&quot;font-family: Menlo, &amp;quot;Roboto Mono&amp;quot;, &amp;quot;Courier New&amp;quot;, Courier, monospace, Inter, sans-serif; overflow: auto; padding: 9.144px 13.716px; text-wrap-mode: wrap; word-break: break-all; font-size: 12.573px; margin-top: 0px !important; margin-bottom: 0px !important;&quot;&gt;&lt;font style=&quot;color: rgb(0, 0, 0);&quot;&gt;-studentId&lt;span style=&quot;&quot; class=&quot;token operator&quot;&gt;:&lt;/span&gt; int&lt;br&gt;-address&lt;span style=&quot;&quot; class=&quot;token operator&quot;&gt;:&lt;/span&gt; string&lt;br&gt;-dateOfBirth&lt;span style=&quot;&quot; class=&quot;token operator&quot;&gt;:&lt;/span&gt; Date&lt;br&gt;-educationLevel&lt;span style=&quot;&quot; class=&quot;token operator&quot;&gt;:&lt;/span&gt; string&lt;/font&gt;&lt;/pre&gt;" style="text;strokeColor=none;fillColor=none;align=left;verticalAlign=top;spacingLeft=4;spacingRight=4;overflow=hidden;rotatable=0;points=[[0,0.5],[1,0.5]];portConstraint=eastwest;whiteSpace=wrap;html=1;" parent="nThOQ2KgZLxcGQNvvFtE-9" vertex="1">
          <mxGeometry y="26" width="440" height="84" as="geometry" />
        </mxCell>
        <mxCell id="nThOQ2KgZLxcGQNvvFtE-11" value="" style="line;strokeWidth=1;fillColor=none;align=left;verticalAlign=middle;spacingTop=-1;spacingLeft=3;spacingRight=3;rotatable=0;labelPosition=right;points=[];portConstraint=eastwest;strokeColor=inherit;" parent="nThOQ2KgZLxcGQNvvFtE-9" vertex="1">
          <mxGeometry y="110" width="440" height="8" as="geometry" />
        </mxCell>
        <mxCell id="nThOQ2KgZLxcGQNvvFtE-12" value="&lt;pre style=&quot;font-family: Menlo, &amp;quot;Roboto Mono&amp;quot;, &amp;quot;Courier New&amp;quot;, Courier, monospace, Inter, sans-serif; overflow: auto; padding: 9.144px 13.716px; text-wrap-mode: wrap; word-break: break-all; font-size: 12.573px; margin-top: 0px !important; margin-bottom: 0px !important;&quot;&gt;&lt;font style=&quot;color: rgb(0, 0, 0);&quot;&gt;+registerCourse&lt;span style=&quot;&quot; class=&quot;token text string&quot;&gt;(courseId: int)&lt;/span&gt;&lt;span style=&quot;&quot; class=&quot;token operator&quot;&gt;:&lt;/span&gt; boolean&lt;br&gt;+cancelRegistration&lt;span style=&quot;&quot; class=&quot;token text string&quot;&gt;(registrationId: int)&lt;/span&gt;&lt;span style=&quot;&quot; class=&quot;token operator&quot;&gt;:&lt;/span&gt; boolean&lt;br&gt;+viewRegisteredCourses&lt;span style=&quot;&quot; class=&quot;token punctuation&quot;&gt;(&lt;/span&gt;&lt;span style=&quot;&quot; class=&quot;token punctuation&quot;&gt;)&lt;/span&gt;&lt;span style=&quot;&quot; class=&quot;token operator&quot;&gt;:&lt;/span&gt; Course[]&lt;br&gt;+sortCourses&lt;span style=&quot;&quot; class=&quot;token text string&quot;&gt;(sortBy: string, order: string)&lt;/span&gt;&lt;span style=&quot;&quot; class=&quot;token operator&quot;&gt;:&lt;/span&gt; Course[]&lt;br&gt;+requestCourseRecommendation&lt;span style=&quot;&quot; class=&quot;token punctuation&quot;&gt;(&lt;/span&gt;&lt;span style=&quot;&quot; class=&quot;token punctuation&quot;&gt;)&lt;/span&gt;&lt;span style=&quot;&quot; class=&quot;token operator&quot;&gt;:&lt;/span&gt; Course[]&lt;br&gt;+viewCourseDetails&lt;span style=&quot;&quot; class=&quot;token text string&quot;&gt;(courseId: int)&lt;/span&gt;&lt;span style=&quot;&quot; class=&quot;token operator&quot;&gt;:&lt;/span&gt; Course&lt;/font&gt;&lt;/pre&gt;" style="text;strokeColor=none;fillColor=none;align=left;verticalAlign=top;spacingLeft=4;spacingRight=4;overflow=hidden;rotatable=0;points=[[0,0.5],[1,0.5]];portConstraint=eastwest;whiteSpace=wrap;html=1;" parent="nThOQ2KgZLxcGQNvvFtE-9" vertex="1">
          <mxGeometry y="118" width="440" height="122" as="geometry" />
        </mxCell>
        <mxCell id="nThOQ2KgZLxcGQNvvFtE-13" value="" style="endArrow=block;endSize=16;endFill=0;html=1;rounded=0;" parent="1" source="nThOQ2KgZLxcGQNvvFtE-5" target="nThOQ2KgZLxcGQNvvFtE-4" edge="1">
          <mxGeometry width="160" relative="1" as="geometry">
            <mxPoint x="276.98" y="4018.05" as="sourcePoint" />
            <mxPoint x="800" y="3980.0020000000004" as="targetPoint" />
          </mxGeometry>
        </mxCell>
        <mxCell id="nThOQ2KgZLxcGQNvvFtE-14" value="" style="endArrow=block;endSize=16;endFill=0;html=1;rounded=0;" parent="1" source="nThOQ2KgZLxcGQNvvFtE-9" target="nThOQ2KgZLxcGQNvvFtE-4" edge="1">
          <mxGeometry width="160" relative="1" as="geometry">
            <mxPoint x="232" y="4090" as="sourcePoint" />
            <mxPoint x="420" y="3970" as="targetPoint" />
          </mxGeometry>
        </mxCell>
        <mxCell id="nThOQ2KgZLxcGQNvvFtE-15" value="Course" style="swimlane;fontStyle=1;align=center;verticalAlign=top;childLayout=stackLayout;horizontal=1;startSize=26;horizontalStack=0;resizeParent=1;resizeParentMax=0;resizeLast=0;collapsible=1;marginBottom=0;whiteSpace=wrap;html=1;" parent="1" vertex="1">
          <mxGeometry x="610" y="4230" width="340" height="330" as="geometry" />
        </mxCell>
        <mxCell id="nThOQ2KgZLxcGQNvvFtE-16" value="&lt;pre style=&quot;font-family: Menlo, &amp;quot;Roboto Mono&amp;quot;, &amp;quot;Courier New&amp;quot;, Courier, monospace, Inter, sans-serif; overflow: auto; padding: 9.144px 13.716px; text-wrap-mode: wrap; word-break: break-all; font-size: 12.573px; margin-top: 0px !important; margin-bottom: 0px !important;&quot;&gt;&lt;font style=&quot;color: rgb(0, 0, 0);&quot;&gt;-courseId&lt;span style=&quot;&quot; class=&quot;token operator&quot;&gt;:&lt;/span&gt; int&lt;br&gt;-name&lt;span style=&quot;&quot; class=&quot;token operator&quot;&gt;:&lt;/span&gt; string&lt;br&gt;-description&lt;span style=&quot;&quot; class=&quot;token operator&quot;&gt;:&lt;/span&gt; string&lt;br&gt;-duration&lt;span style=&quot;&quot; class=&quot;token operator&quot;&gt;:&lt;/span&gt; int&lt;br&gt;-category&lt;span style=&quot;&quot; class=&quot;token operator&quot;&gt;:&lt;/span&gt; string&lt;br&gt;-startDate&lt;span style=&quot;&quot; class=&quot;token operator&quot;&gt;:&lt;/span&gt; Date&lt;br&gt;-endDate&lt;span style=&quot;&quot; class=&quot;token operator&quot;&gt;:&lt;/span&gt; Date&lt;br&gt;-maxStudents&lt;span style=&quot;&quot; class=&quot;token operator&quot;&gt;:&lt;/span&gt; int&lt;br&gt;-createdBy&lt;span style=&quot;&quot; class=&quot;token operator&quot;&gt;:&lt;/span&gt; int&lt;br&gt;-createdAt&lt;span style=&quot;&quot; class=&quot;token operator&quot;&gt;:&lt;/span&gt; DateTime&lt;br&gt;-updatedAt&lt;span style=&quot;&quot; class=&quot;token operator&quot;&gt;:&lt;/span&gt; DateTime&lt;/font&gt;&lt;/pre&gt;" style="text;strokeColor=none;fillColor=none;align=left;verticalAlign=top;spacingLeft=4;spacingRight=4;overflow=hidden;rotatable=0;points=[[0,0.5],[1,0.5]];portConstraint=eastwest;whiteSpace=wrap;html=1;" parent="nThOQ2KgZLxcGQNvvFtE-15" vertex="1">
          <mxGeometry y="26" width="340" height="194" as="geometry" />
        </mxCell>
        <mxCell id="nThOQ2KgZLxcGQNvvFtE-17" value="" style="line;strokeWidth=1;fillColor=none;align=left;verticalAlign=middle;spacingTop=-1;spacingLeft=3;spacingRight=3;rotatable=0;labelPosition=right;points=[];portConstraint=eastwest;strokeColor=inherit;" parent="nThOQ2KgZLxcGQNvvFtE-15" vertex="1">
          <mxGeometry y="220" width="340" height="8" as="geometry" />
        </mxCell>
        <mxCell id="nThOQ2KgZLxcGQNvvFtE-18" value="&lt;pre style=&quot;font-family: Menlo, &amp;quot;Roboto Mono&amp;quot;, &amp;quot;Courier New&amp;quot;, Courier, monospace, Inter, sans-serif; overflow: auto; padding: 9.144px 13.716px; text-wrap-mode: wrap; word-break: break-all; font-size: 12.573px; margin-top: 0px !important; margin-bottom: 0px !important;&quot;&gt;&lt;font style=&quot;color: rgb(0, 0, 0);&quot;&gt;+getEnrolledStudents&lt;span style=&quot;&quot; class=&quot;token punctuation&quot;&gt;(&lt;/span&gt;&lt;span style=&quot;&quot; class=&quot;token punctuation&quot;&gt;)&lt;/span&gt;&lt;span style=&quot;&quot; class=&quot;token operator&quot;&gt;:&lt;/span&gt; Student[]&lt;br&gt;+getAvailableSlots&lt;span style=&quot;&quot; class=&quot;token punctuation&quot;&gt;(&lt;/span&gt;&lt;span style=&quot;&quot; class=&quot;token punctuation&quot;&gt;)&lt;/span&gt;&lt;span style=&quot;&quot; class=&quot;token operator&quot;&gt;:&lt;/span&gt; int&lt;br&gt;+updateDetails&lt;span style=&quot;&quot; class=&quot;token text string&quot;&gt;(updateData: Map)&lt;/span&gt;&lt;span style=&quot;&quot; class=&quot;token operator&quot;&gt;:&lt;/span&gt; boolean&lt;br&gt;+isFull&lt;span style=&quot;&quot; class=&quot;token punctuation&quot;&gt;(&lt;/span&gt;&lt;span style=&quot;&quot; class=&quot;token punctuation&quot;&gt;)&lt;/span&gt;&lt;span style=&quot;&quot; class=&quot;token operator&quot;&gt;:&lt;/span&gt; boolean&lt;br&gt;+searchSimilarCourses&lt;span style=&quot;&quot; class=&quot;token punctuation&quot;&gt;(&lt;/span&gt;&lt;span style=&quot;&quot; class=&quot;token punctuation&quot;&gt;)&lt;/span&gt;&lt;span style=&quot;&quot; class=&quot;token operator&quot;&gt;:&lt;/span&gt; Course[]&lt;/font&gt;&lt;/pre&gt;" style="text;strokeColor=none;fillColor=none;align=left;verticalAlign=top;spacingLeft=4;spacingRight=4;overflow=hidden;rotatable=0;points=[[0,0.5],[1,0.5]];portConstraint=eastwest;whiteSpace=wrap;html=1;" parent="nThOQ2KgZLxcGQNvvFtE-15" vertex="1">
          <mxGeometry y="228" width="340" height="102" as="geometry" />
        </mxCell>
        <mxCell id="nThOQ2KgZLxcGQNvvFtE-19" value="Statistics" style="swimlane;fontStyle=1;align=center;verticalAlign=top;childLayout=stackLayout;horizontal=1;startSize=26;horizontalStack=0;resizeParent=1;resizeParentMax=0;resizeLast=0;collapsible=1;marginBottom=0;whiteSpace=wrap;html=1;" parent="1" vertex="1">
          <mxGeometry x="140" y="4340" width="450" height="230" as="geometry" />
        </mxCell>
        <mxCell id="nThOQ2KgZLxcGQNvvFtE-20" value="&lt;pre style=&quot;font-family: Menlo, &amp;quot;Roboto Mono&amp;quot;, &amp;quot;Courier New&amp;quot;, Courier, monospace, Inter, sans-serif; overflow: auto; padding: 9.144px 13.716px; text-wrap-mode: wrap; word-break: break-all; font-size: 12.573px; margin-top: 0px !important; margin-bottom: 0px !important;&quot;&gt;&lt;font style=&quot;color: rgb(0, 0, 0);&quot;&gt;-statisticsId&lt;span style=&quot;&quot; class=&quot;token operator&quot;&gt;:&lt;/span&gt; int&lt;br&gt;-reportType&lt;span style=&quot;&quot; class=&quot;token operator&quot;&gt;:&lt;/span&gt; string&lt;br&gt;-generatedBy&lt;span style=&quot;&quot; class=&quot;token operator&quot;&gt;:&lt;/span&gt; int&lt;br&gt;-generatedAt&lt;span style=&quot;&quot; class=&quot;token operator&quot;&gt;:&lt;/span&gt; DateTime&lt;br&gt;&lt;/font&gt;&lt;/pre&gt;" style="text;strokeColor=none;fillColor=none;align=left;verticalAlign=top;spacingLeft=4;spacingRight=4;overflow=hidden;rotatable=0;points=[[0,0.5],[1,0.5]];portConstraint=eastwest;whiteSpace=wrap;html=1;" parent="nThOQ2KgZLxcGQNvvFtE-19" vertex="1">
          <mxGeometry y="26" width="450" height="84" as="geometry" />
        </mxCell>
        <mxCell id="nThOQ2KgZLxcGQNvvFtE-21" value="" style="line;strokeWidth=1;fillColor=none;align=left;verticalAlign=middle;spacingTop=-1;spacingLeft=3;spacingRight=3;rotatable=0;labelPosition=right;points=[];portConstraint=eastwest;strokeColor=inherit;" parent="nThOQ2KgZLxcGQNvvFtE-19" vertex="1">
          <mxGeometry y="110" width="450" height="8" as="geometry" />
        </mxCell>
        <mxCell id="nThOQ2KgZLxcGQNvvFtE-22" value="&lt;font style=&quot;color: rgb(0, 0, 0);&quot;&gt;&lt;br&gt;&lt;/font&gt;&lt;pre style=&quot;font-family: Menlo, &amp;quot;Roboto Mono&amp;quot;, &amp;quot;Courier New&amp;quot;, Courier, monospace, Inter, sans-serif; overflow: auto; padding: 9.144px 13.716px; white-space: pre-wrap; word-break: break-all; font-size: 12.573px; font-style: normal; font-variant-ligatures: normal; font-variant-caps: normal; font-weight: 400; letter-spacing: normal; orphans: 2; text-align: start; text-indent: 0px; text-transform: none; widows: 2; word-spacing: 0px; -webkit-text-stroke-width: 0px; text-decoration-thickness: initial; text-decoration-style: initial; text-decoration-color: initial; margin: 0px !important;&quot;&gt;&lt;font style=&quot;color: rgb(0, 0, 0);&quot;&gt;+generateCourseStatistics&lt;span class=&quot;token punctuation&quot;&gt;(&lt;/span&gt;&lt;span class=&quot;token punctuation&quot;&gt;)&lt;/span&gt;&lt;span class=&quot;token operator&quot;&gt;:&lt;/span&gt; StatisticsReport&lt;br&gt;+generateStudentStatistics&lt;span class=&quot;token punctuation&quot;&gt;(&lt;/span&gt;&lt;span class=&quot;token punctuation&quot;&gt;)&lt;/span&gt;&lt;span class=&quot;token operator&quot;&gt;:&lt;/span&gt; StatisticsReport&lt;br&gt;+getTopCourses&lt;span class=&quot;token text string&quot;&gt;(limit: int)&lt;/span&gt;&lt;span class=&quot;token operator&quot;&gt;:&lt;/span&gt; Course[]&lt;br&gt;+getCoursesWithMinStudents&lt;span class=&quot;token text string&quot;&gt;(minStudents: int)&lt;/span&gt;&lt;span class=&quot;token operator&quot;&gt;:&lt;/span&gt; Course[]&lt;br&gt;+exportToExcel&lt;span class=&quot;token punctuation&quot;&gt;(&lt;/span&gt;&lt;span class=&quot;token punctuation&quot;&gt;)&lt;/span&gt;&lt;span class=&quot;token operator&quot;&gt;:&lt;/span&gt; boolean&lt;/font&gt;&lt;/pre&gt;&lt;font style=&quot;color: rgb(0, 0, 0);&quot;&gt;&lt;br&gt;&lt;/font&gt;" style="text;strokeColor=none;fillColor=none;align=left;verticalAlign=top;spacingLeft=4;spacingRight=4;overflow=hidden;rotatable=0;points=[[0,0.5],[1,0.5]];portConstraint=eastwest;whiteSpace=wrap;html=1;" parent="nThOQ2KgZLxcGQNvvFtE-19" vertex="1">
          <mxGeometry y="118" width="450" height="112" as="geometry" />
        </mxCell>
        <mxCell id="nThOQ2KgZLxcGQNvvFtE-23" value="Registration" style="swimlane;fontStyle=1;align=center;verticalAlign=top;childLayout=stackLayout;horizontal=1;startSize=26;horizontalStack=0;resizeParent=1;resizeParentMax=0;resizeLast=0;collapsible=1;marginBottom=0;whiteSpace=wrap;html=1;" parent="1" vertex="1">
          <mxGeometry x="100" y="4600" width="530" height="250" as="geometry" />
        </mxCell>
        <mxCell id="nThOQ2KgZLxcGQNvvFtE-24" value="&lt;pre style=&quot;font-family: Menlo, &amp;quot;Roboto Mono&amp;quot;, &amp;quot;Courier New&amp;quot;, Courier, monospace, Inter, sans-serif; overflow: auto; padding: 9.144px 13.716px; text-wrap-mode: wrap; word-break: break-all; font-size: 12.573px; margin-top: 0px !important; margin-bottom: 0px !important;&quot;&gt;&lt;font style=&quot;color: rgb(0, 0, 0);&quot;&gt;-registrationId&lt;span style=&quot;&quot; class=&quot;token operator&quot;&gt;:&lt;/span&gt; int&lt;br&gt;-student&lt;span style=&quot;&quot; class=&quot;token operator&quot;&gt;:&lt;/span&gt; Student&lt;br&gt;-course&lt;span style=&quot;&quot; class=&quot;token operator&quot;&gt;:&lt;/span&gt; Course&lt;br&gt;-registrationDate&lt;span style=&quot;&quot; class=&quot;token operator&quot;&gt;:&lt;/span&gt; DateTime&lt;br&gt;-status&lt;span style=&quot;&quot; class=&quot;token operator&quot;&gt;:&lt;/span&gt; enum&lt;span style=&quot;&quot; class=&quot;token text string&quot;&gt;{pending, approved, rejected, cancelled, completed}&lt;/span&gt;&lt;br&gt;-approvedBy&lt;span style=&quot;&quot; class=&quot;token operator&quot;&gt;:&lt;/span&gt; Admin&lt;br&gt;-approvedAt&lt;span style=&quot;&quot; class=&quot;token operator&quot;&gt;:&lt;/span&gt; DateTime&lt;/font&gt;&lt;/pre&gt;" style="text;strokeColor=none;fillColor=none;align=left;verticalAlign=top;spacingLeft=4;spacingRight=4;overflow=hidden;rotatable=0;points=[[0,0.5],[1,0.5]];portConstraint=eastwest;whiteSpace=wrap;html=1;" parent="nThOQ2KgZLxcGQNvvFtE-23" vertex="1">
          <mxGeometry y="26" width="530" height="124" as="geometry" />
        </mxCell>
        <mxCell id="nThOQ2KgZLxcGQNvvFtE-25" value="" style="line;strokeWidth=1;fillColor=none;align=left;verticalAlign=middle;spacingTop=-1;spacingLeft=3;spacingRight=3;rotatable=0;labelPosition=right;points=[];portConstraint=eastwest;strokeColor=inherit;" parent="nThOQ2KgZLxcGQNvvFtE-23" vertex="1">
          <mxGeometry y="150" width="530" height="8" as="geometry" />
        </mxCell>
        <mxCell id="nThOQ2KgZLxcGQNvvFtE-26" value="&lt;pre style=&quot;font-family: Menlo, &amp;quot;Roboto Mono&amp;quot;, &amp;quot;Courier New&amp;quot;, Courier, monospace, Inter, sans-serif; overflow: auto; padding: 9.144px 13.716px; text-wrap-mode: wrap; word-break: break-all; font-size: 12.573px; margin-top: 0px !important; margin-bottom: 0px !important;&quot;&gt;&lt;font style=&quot;color: rgb(0, 0, 0);&quot;&gt;+approve&lt;span style=&quot;&quot; class=&quot;token text string&quot;&gt;(adminId: int)&lt;/span&gt;&lt;span style=&quot;&quot; class=&quot;token operator&quot;&gt;:&lt;/span&gt; boolean&lt;br&gt;+reject&lt;span style=&quot;&quot; class=&quot;token text string&quot;&gt;(adminId: int)&lt;/span&gt;&lt;span style=&quot;&quot; class=&quot;token operator&quot;&gt;:&lt;/span&gt; boolean&lt;br&gt;+cancel&lt;span style=&quot;&quot; class=&quot;token punctuation&quot;&gt;(&lt;/span&gt;&lt;span style=&quot;&quot; class=&quot;token punctuation&quot;&gt;)&lt;/span&gt;&lt;span style=&quot;&quot; class=&quot;token operator&quot;&gt;:&lt;/span&gt; boolean&lt;br&gt;+getStatus&lt;span style=&quot;&quot; class=&quot;token punctuation&quot;&gt;(&lt;/span&gt;&lt;span style=&quot;&quot; class=&quot;token punctuation&quot;&gt;)&lt;/span&gt;&lt;span style=&quot;&quot; class=&quot;token operator&quot;&gt;:&lt;/span&gt; string&lt;br&gt;+getDuration&lt;span style=&quot;&quot; class=&quot;token punctuation&quot;&gt;(&lt;/span&gt;&lt;span style=&quot;&quot; class=&quot;token punctuation&quot;&gt;)&lt;/span&gt;&lt;span style=&quot;&quot; class=&quot;token operator&quot;&gt;:&lt;/span&gt; int&lt;/font&gt;&lt;/pre&gt;" style="text;strokeColor=none;fillColor=none;align=left;verticalAlign=top;spacingLeft=4;spacingRight=4;overflow=hidden;rotatable=0;points=[[0,0.5],[1,0.5]];portConstraint=eastwest;whiteSpace=wrap;html=1;" parent="nThOQ2KgZLxcGQNvvFtE-23" vertex="1">
          <mxGeometry y="158" width="530" height="92" as="geometry" />
        </mxCell>
        <mxCell id="nThOQ2KgZLxcGQNvvFtE-27" value="Notification" style="swimlane;fontStyle=1;align=center;verticalAlign=top;childLayout=stackLayout;horizontal=1;startSize=26;horizontalStack=0;resizeParent=1;resizeParentMax=0;resizeLast=0;collapsible=1;marginBottom=0;whiteSpace=wrap;html=1;" parent="1" vertex="1">
          <mxGeometry x="1030" y="4550" width="440" height="240" as="geometry" />
        </mxCell>
        <mxCell id="nThOQ2KgZLxcGQNvvFtE-28" value="&lt;pre style=&quot;font-family: Menlo, &amp;quot;Roboto Mono&amp;quot;, &amp;quot;Courier New&amp;quot;, Courier, monospace, Inter, sans-serif; overflow: auto; padding: 9.144px 13.716px; text-wrap-mode: wrap; word-break: break-all; font-size: 12.573px; margin-top: 0px !important; margin-bottom: 0px !important;&quot;&gt;&lt;font style=&quot;color: rgb(0, 0, 0);&quot;&gt;-notificationId&lt;span style=&quot;&quot; class=&quot;token operator&quot;&gt;:&lt;/span&gt; int&lt;br&gt;-recipient&lt;span style=&quot;&quot; class=&quot;token operator&quot;&gt;:&lt;/span&gt; User&lt;br&gt;-sender&lt;span style=&quot;&quot; class=&quot;token operator&quot;&gt;:&lt;/span&gt; User&lt;br&gt;-message&lt;span style=&quot;&quot; class=&quot;token operator&quot;&gt;:&lt;/span&gt; string&lt;br&gt;-type&lt;span style=&quot;&quot; class=&quot;token operator&quot;&gt;:&lt;/span&gt; string&lt;br&gt;-isRead&lt;span style=&quot;&quot; class=&quot;token operator&quot;&gt;:&lt;/span&gt; boolean&lt;br&gt;-createdAt&lt;span style=&quot;&quot; class=&quot;token operator&quot;&gt;:&lt;/span&gt; DateTime&lt;/font&gt;&lt;/pre&gt;" style="text;strokeColor=none;fillColor=none;align=left;verticalAlign=top;spacingLeft=4;spacingRight=4;overflow=hidden;rotatable=0;points=[[0,0.5],[1,0.5]];portConstraint=eastwest;whiteSpace=wrap;html=1;" parent="nThOQ2KgZLxcGQNvvFtE-27" vertex="1">
          <mxGeometry y="26" width="440" height="124" as="geometry" />
        </mxCell>
        <mxCell id="nThOQ2KgZLxcGQNvvFtE-29" value="" style="line;strokeWidth=1;fillColor=none;align=left;verticalAlign=middle;spacingTop=-1;spacingLeft=3;spacingRight=3;rotatable=0;labelPosition=right;points=[];portConstraint=eastwest;strokeColor=inherit;" parent="nThOQ2KgZLxcGQNvvFtE-27" vertex="1">
          <mxGeometry y="150" width="440" height="8" as="geometry" />
        </mxCell>
        <mxCell id="nThOQ2KgZLxcGQNvvFtE-30" value="&lt;font style=&quot;color: rgb(0, 0, 0);&quot;&gt;&lt;br&gt;&lt;/font&gt;&lt;pre style=&quot;font-family: Menlo, &amp;quot;Roboto Mono&amp;quot;, &amp;quot;Courier New&amp;quot;, Courier, monospace, Inter, sans-serif; overflow: auto; padding: 9.144px 13.716px; white-space: pre-wrap; word-break: break-all; font-size: 12.573px; font-style: normal; font-variant-ligatures: normal; font-variant-caps: normal; font-weight: 400; letter-spacing: normal; orphans: 2; text-align: start; text-indent: 0px; text-transform: none; widows: 2; word-spacing: 0px; -webkit-text-stroke-width: 0px; text-decoration-thickness: initial; text-decoration-style: initial; text-decoration-color: initial; margin: 0px !important;&quot;&gt;&lt;font style=&quot;color: rgb(0, 0, 0);&quot;&gt; +send&lt;span class=&quot;token punctuation&quot;&gt;(&lt;/span&gt;&lt;span class=&quot;token punctuation&quot;&gt;)&lt;/span&gt;&lt;span class=&quot;token operator&quot;&gt;:&lt;/span&gt; boolean&lt;br&gt; +markAsRead&lt;span class=&quot;token punctuation&quot;&gt;(&lt;/span&gt;&lt;span class=&quot;token punctuation&quot;&gt;)&lt;/span&gt;&lt;span class=&quot;token operator&quot;&gt;:&lt;/span&gt; boolean&lt;br&gt; +getUnreadNotifications&lt;span class=&quot;token text string&quot;&gt;(userId: int)&lt;/span&gt;&lt;span class=&quot;token operator&quot;&gt;:&lt;/span&gt; Notification[]&lt;/font&gt;&lt;/pre&gt;&lt;font style=&quot;color: rgb(0, 0, 0);&quot;&gt;&lt;br&gt;&lt;/font&gt;" style="text;strokeColor=none;fillColor=none;align=left;verticalAlign=top;spacingLeft=4;spacingRight=4;overflow=hidden;rotatable=0;points=[[0,0.5],[1,0.5]];portConstraint=eastwest;whiteSpace=wrap;html=1;" parent="nThOQ2KgZLxcGQNvvFtE-27" vertex="1">
          <mxGeometry y="158" width="440" height="82" as="geometry" />
        </mxCell>
        <mxCell id="nThOQ2KgZLxcGQNvvFtE-31" value="" style="endArrow=classic;html=1;rounded=0;" parent="1" source="nThOQ2KgZLxcGQNvvFtE-12" target="nThOQ2KgZLxcGQNvvFtE-23" edge="1">
          <mxGeometry width="50" height="50" relative="1" as="geometry">
            <mxPoint x="970" y="4530" as="sourcePoint" />
            <mxPoint x="1020" y="4480" as="targetPoint" />
            <Array as="points" />
          </mxGeometry>
        </mxCell>
        <mxCell id="nThOQ2KgZLxcGQNvvFtE-32" value="1" style="edgeLabel;html=1;align=center;verticalAlign=middle;resizable=0;points=[];" parent="nThOQ2KgZLxcGQNvvFtE-31" vertex="1" connectable="0">
          <mxGeometry x="-0.7171" relative="1" as="geometry">
            <mxPoint x="1" as="offset" />
          </mxGeometry>
        </mxCell>
        <mxCell id="nThOQ2KgZLxcGQNvvFtE-33" value="n" style="edgeLabel;html=1;align=center;verticalAlign=middle;resizable=0;points=[];" parent="nThOQ2KgZLxcGQNvvFtE-31" vertex="1" connectable="0">
          <mxGeometry x="0.6945" y="1" relative="1" as="geometry">
            <mxPoint y="1" as="offset" />
          </mxGeometry>
        </mxCell>
        <mxCell id="nThOQ2KgZLxcGQNvvFtE-34" value="" style="endArrow=classic;html=1;rounded=0;" parent="1" source="nThOQ2KgZLxcGQNvvFtE-18" target="nThOQ2KgZLxcGQNvvFtE-23" edge="1">
          <mxGeometry width="50" height="50" relative="1" as="geometry">
            <mxPoint x="970" y="4930" as="sourcePoint" />
            <mxPoint x="1020" y="4880" as="targetPoint" />
          </mxGeometry>
        </mxCell>
        <mxCell id="nThOQ2KgZLxcGQNvvFtE-35" value="1" style="edgeLabel;html=1;align=center;verticalAlign=middle;resizable=0;points=[];" parent="nThOQ2KgZLxcGQNvvFtE-34" vertex="1" connectable="0">
          <mxGeometry x="-0.6062" y="-1" relative="1" as="geometry">
            <mxPoint y="-1" as="offset" />
          </mxGeometry>
        </mxCell>
        <mxCell id="nThOQ2KgZLxcGQNvvFtE-36" value="n" style="edgeLabel;html=1;align=center;verticalAlign=middle;resizable=0;points=[];" parent="nThOQ2KgZLxcGQNvvFtE-34" vertex="1" connectable="0">
          <mxGeometry x="0.5375" y="1" relative="1" as="geometry">
            <mxPoint as="offset" />
          </mxGeometry>
        </mxCell>
        <mxCell id="nThOQ2KgZLxcGQNvvFtE-37" value="" style="endArrow=classic;html=1;rounded=0;entryX=0.206;entryY=0;entryDx=0;entryDy=0;entryPerimeter=0;" parent="1" source="nThOQ2KgZLxcGQNvvFtE-5" target="nThOQ2KgZLxcGQNvvFtE-15" edge="1">
          <mxGeometry width="50" height="50" relative="1" as="geometry">
            <mxPoint x="970" y="4330" as="sourcePoint" />
            <mxPoint x="1020" y="4280" as="targetPoint" />
          </mxGeometry>
        </mxCell>
        <mxCell id="nThOQ2KgZLxcGQNvvFtE-38" value="1" style="edgeLabel;html=1;align=center;verticalAlign=middle;resizable=0;points=[];" parent="nThOQ2KgZLxcGQNvvFtE-37" vertex="1" connectable="0">
          <mxGeometry x="-0.6609" y="-3" relative="1" as="geometry">
            <mxPoint as="offset" />
          </mxGeometry>
        </mxCell>
        <mxCell id="nThOQ2KgZLxcGQNvvFtE-39" value="n" style="edgeLabel;html=1;align=center;verticalAlign=middle;resizable=0;points=[];" parent="nThOQ2KgZLxcGQNvvFtE-37" vertex="1" connectable="0">
          <mxGeometry x="0.519" y="-3" relative="1" as="geometry">
            <mxPoint as="offset" />
          </mxGeometry>
        </mxCell>
        <mxCell id="nThOQ2KgZLxcGQNvvFtE-40" value="" style="endArrow=classic;html=1;rounded=0;" parent="1" source="nThOQ2KgZLxcGQNvvFtE-23" target="nThOQ2KgZLxcGQNvvFtE-27" edge="1">
          <mxGeometry width="50" height="50" relative="1" as="geometry">
            <mxPoint x="920" y="4730" as="sourcePoint" />
            <mxPoint x="840" y="4780" as="targetPoint" />
          </mxGeometry>
        </mxCell>
        <mxCell id="nThOQ2KgZLxcGQNvvFtE-46" value="1" style="edgeLabel;html=1;align=center;verticalAlign=middle;resizable=0;points=[];" parent="nThOQ2KgZLxcGQNvvFtE-40" vertex="1" connectable="0">
          <mxGeometry x="-0.6328" relative="1" as="geometry">
            <mxPoint as="offset" />
          </mxGeometry>
        </mxCell>
        <mxCell id="nThOQ2KgZLxcGQNvvFtE-47" value="n" style="edgeLabel;html=1;align=center;verticalAlign=middle;resizable=0;points=[];" parent="nThOQ2KgZLxcGQNvvFtE-40" vertex="1" connectable="0">
          <mxGeometry x="0.3577" y="2" relative="1" as="geometry">
            <mxPoint as="offset" />
          </mxGeometry>
        </mxCell>
        <mxCell id="nThOQ2KgZLxcGQNvvFtE-41" value="" style="endArrow=classic;html=1;rounded=0;exitX=0.528;exitY=1.014;exitDx=0;exitDy=0;exitPerimeter=0;entryX=0.531;entryY=0;entryDx=0;entryDy=0;entryPerimeter=0;" parent="1" source="nThOQ2KgZLxcGQNvvFtE-8" target="nThOQ2KgZLxcGQNvvFtE-19" edge="1">
          <mxGeometry width="50" height="50" relative="1" as="geometry">
            <mxPoint x="380" y="4430" as="sourcePoint" />
            <mxPoint x="430" y="4380" as="targetPoint" />
          </mxGeometry>
        </mxCell>
        <mxCell id="nThOQ2KgZLxcGQNvvFtE-44" value="1" style="edgeLabel;html=1;align=center;verticalAlign=middle;resizable=0;points=[];" parent="nThOQ2KgZLxcGQNvvFtE-41" vertex="1" connectable="0">
          <mxGeometry x="0.2352" y="-1" relative="1" as="geometry">
            <mxPoint as="offset" />
          </mxGeometry>
        </mxCell>
        <mxCell id="nThOQ2KgZLxcGQNvvFtE-45" value="1" style="edgeLabel;html=1;align=center;verticalAlign=middle;resizable=0;points=[];" parent="nThOQ2KgZLxcGQNvvFtE-41" vertex="1" connectable="0">
          <mxGeometry x="-0.5583" y="1" relative="1" as="geometry">
            <mxPoint as="offset" />
          </mxGeometry>
        </mxCell>
        <mxCell id="nThOQ2KgZLxcGQNvvFtE-48" value="" style="endArrow=classic;html=1;rounded=0;exitX=0.006;exitY=0.996;exitDx=0;exitDy=0;exitPerimeter=0;entryX=0.045;entryY=0.005;entryDx=0;entryDy=0;entryPerimeter=0;" parent="1" source="nThOQ2KgZLxcGQNvvFtE-8" target="nThOQ2KgZLxcGQNvvFtE-23" edge="1">
          <mxGeometry width="50" height="50" relative="1" as="geometry">
            <mxPoint x="890" y="4510" as="sourcePoint" />
            <mxPoint x="940" y="4460" as="targetPoint" />
          </mxGeometry>
        </mxCell>
        <mxCell id="14GTsa4ybUtIxwmF2xHG-1" value="&lt;b&gt;presentation&lt;/b&gt;" style="html=1;whiteSpace=wrap;verticalAlign=top;" vertex="1" parent="1">
          <mxGeometry x="130" y="5200" width="240" height="320" as="geometry" />
        </mxCell>
        <mxCell id="14GTsa4ybUtIxwmF2xHG-2" value="AdminUI" style="swimlane;fontStyle=1;align=center;verticalAlign=top;childLayout=stackLayout;horizontal=1;startSize=26;horizontalStack=0;resizeParent=1;resizeParentMax=0;resizeLast=0;collapsible=1;marginBottom=0;whiteSpace=wrap;html=1;" vertex="1" parent="1">
          <mxGeometry x="170" y="5230" width="160" height="120" as="geometry" />
        </mxCell>
        <mxCell id="14GTsa4ybUtIxwmF2xHG-4" value="" style="line;strokeWidth=1;fillColor=none;align=left;verticalAlign=middle;spacingTop=-1;spacingLeft=3;spacingRight=3;rotatable=0;labelPosition=right;points=[];portConstraint=eastwest;strokeColor=inherit;" vertex="1" parent="14GTsa4ybUtIxwmF2xHG-2">
          <mxGeometry y="26" width="160" height="8" as="geometry" />
        </mxCell>
        <mxCell id="14GTsa4ybUtIxwmF2xHG-5" value="&lt;div&gt;+ showAdminMenu()&lt;/div&gt;&lt;div&gt;+ manageCourses()&lt;/div&gt;&lt;div&gt;+ manageStudents()&lt;/div&gt;&lt;div&gt;+ manageEnrollments()&lt;/div&gt;&lt;div&gt;+ showStatistics()&lt;/div&gt;" style="text;strokeColor=none;fillColor=none;align=left;verticalAlign=top;spacingLeft=4;spacingRight=4;overflow=hidden;rotatable=0;points=[[0,0.5],[1,0.5]];portConstraint=eastwest;whiteSpace=wrap;html=1;" vertex="1" parent="14GTsa4ybUtIxwmF2xHG-2">
          <mxGeometry y="34" width="160" height="86" as="geometry" />
        </mxCell>
        <mxCell id="14GTsa4ybUtIxwmF2xHG-6" value="StudentUI" style="swimlane;fontStyle=1;align=center;verticalAlign=top;childLayout=stackLayout;horizontal=1;startSize=26;horizontalStack=0;resizeParent=1;resizeParentMax=0;resizeLast=0;collapsible=1;marginBottom=0;whiteSpace=wrap;html=1;" vertex="1" parent="1">
          <mxGeometry x="170" y="5370" width="160" height="130" as="geometry" />
        </mxCell>
        <mxCell id="14GTsa4ybUtIxwmF2xHG-8" value="" style="line;strokeWidth=1;fillColor=none;align=left;verticalAlign=middle;spacingTop=-1;spacingLeft=3;spacingRight=3;rotatable=0;labelPosition=right;points=[];portConstraint=eastwest;strokeColor=inherit;" vertex="1" parent="14GTsa4ybUtIxwmF2xHG-6">
          <mxGeometry y="26" width="160" height="8" as="geometry" />
        </mxCell>
        <mxCell id="14GTsa4ybUtIxwmF2xHG-9" value="&lt;div&gt;+ showStudentMenu()&lt;/div&gt;&lt;div&gt;+ viewAvailableCourses()&lt;/div&gt;&lt;div&gt;+ registerForCourse()&lt;/div&gt;&lt;div&gt;+ viewRegisteredCourses()&lt;/div&gt;&lt;div&gt;+ cancelRegistration()&lt;/div&gt;&lt;div&gt;+ changePassword()&lt;/div&gt;" style="text;strokeColor=none;fillColor=none;align=left;verticalAlign=top;spacingLeft=4;spacingRight=4;overflow=hidden;rotatable=0;points=[[0,0.5],[1,0.5]];portConstraint=eastwest;whiteSpace=wrap;html=1;" vertex="1" parent="14GTsa4ybUtIxwmF2xHG-6">
          <mxGeometry y="34" width="160" height="96" as="geometry" />
        </mxCell>
        <mxCell id="14GTsa4ybUtIxwmF2xHG-10" value="&lt;b&gt;business&lt;/b&gt;" style="html=1;whiteSpace=wrap;verticalAlign=top;" vertex="1" parent="1">
          <mxGeometry x="400" y="4870" width="2560" height="1355" as="geometry" />
        </mxCell>
        <mxCell id="14GTsa4ybUtIxwmF2xHG-11" value="&lt;b&gt;service&lt;/b&gt;" style="html=1;whiteSpace=wrap;verticalAlign=top;" vertex="1" parent="1">
          <mxGeometry x="470" y="5040" width="870" height="800" as="geometry" />
        </mxCell>
        <mxCell id="14GTsa4ybUtIxwmF2xHG-12" value="&lt;i&gt;IStatisticsService&lt;/i&gt;" style="swimlane;fontStyle=1;align=center;verticalAlign=top;childLayout=stackLayout;horizontal=1;startSize=26;horizontalStack=0;resizeParent=1;resizeParentMax=0;resizeLast=0;collapsible=1;marginBottom=0;whiteSpace=wrap;html=1;" vertex="1" parent="1">
          <mxGeometry x="490" y="5070" width="350" height="100" as="geometry" />
        </mxCell>
        <mxCell id="14GTsa4ybUtIxwmF2xHG-14" value="" style="line;strokeWidth=1;fillColor=none;align=left;verticalAlign=middle;spacingTop=-1;spacingLeft=3;spacingRight=3;rotatable=0;labelPosition=right;points=[];portConstraint=eastwest;strokeColor=inherit;" vertex="1" parent="14GTsa4ybUtIxwmF2xHG-12">
          <mxGeometry y="26" width="350" height="8" as="geometry" />
        </mxCell>
        <mxCell id="14GTsa4ybUtIxwmF2xHG-15" value="&lt;div&gt;+ getTotalCounts(): Map&amp;lt;String, Integer&amp;gt;&lt;/div&gt;&lt;div&gt;+ getEnrollmentCounts(): Map&amp;lt;Course, Integer&amp;gt;&lt;/div&gt;&lt;div&gt;+ getTopCourses(limit:int): List&amp;lt;Course&amp;gt;&lt;/div&gt;&lt;div&gt;+ getCoursesWithMinStudents(minStudents:int): List&amp;lt;Course&amp;gt;&lt;/div&gt;" style="text;strokeColor=none;fillColor=none;align=left;verticalAlign=top;spacingLeft=4;spacingRight=4;overflow=hidden;rotatable=0;points=[[0,0.5],[1,0.5]];portConstraint=eastwest;whiteSpace=wrap;html=1;" vertex="1" parent="14GTsa4ybUtIxwmF2xHG-12">
          <mxGeometry y="34" width="350" height="66" as="geometry" />
        </mxCell>
        <mxCell id="14GTsa4ybUtIxwmF2xHG-16" value="&lt;i&gt;IAdminService&lt;/i&gt;" style="swimlane;fontStyle=1;align=center;verticalAlign=top;childLayout=stackLayout;horizontal=1;startSize=26;horizontalStack=0;resizeParent=1;resizeParentMax=0;resizeLast=0;collapsible=1;marginBottom=0;whiteSpace=wrap;html=1;" vertex="1" parent="1">
          <mxGeometry x="490" y="5240" width="350" height="60" as="geometry" />
        </mxCell>
        <mxCell id="14GTsa4ybUtIxwmF2xHG-18" value="" style="line;strokeWidth=1;fillColor=none;align=left;verticalAlign=middle;spacingTop=-1;spacingLeft=3;spacingRight=3;rotatable=0;labelPosition=right;points=[];portConstraint=eastwest;strokeColor=inherit;" vertex="1" parent="14GTsa4ybUtIxwmF2xHG-16">
          <mxGeometry y="26" width="350" height="8" as="geometry" />
        </mxCell>
        <mxCell id="14GTsa4ybUtIxwmF2xHG-19" value="+ authenticate(username:String, password:String): Admin" style="text;strokeColor=none;fillColor=none;align=left;verticalAlign=top;spacingLeft=4;spacingRight=4;overflow=hidden;rotatable=0;points=[[0,0.5],[1,0.5]];portConstraint=eastwest;whiteSpace=wrap;html=1;" vertex="1" parent="14GTsa4ybUtIxwmF2xHG-16">
          <mxGeometry y="34" width="350" height="26" as="geometry" />
        </mxCell>
        <mxCell id="14GTsa4ybUtIxwmF2xHG-20" value="&lt;i&gt;IEnrollmentService&lt;/i&gt;" style="swimlane;fontStyle=1;align=center;verticalAlign=top;childLayout=stackLayout;horizontal=1;startSize=26;horizontalStack=0;resizeParent=1;resizeParentMax=0;resizeLast=0;collapsible=1;marginBottom=0;whiteSpace=wrap;html=1;" vertex="1" parent="1">
          <mxGeometry x="490" y="5350" width="350" height="130" as="geometry" />
        </mxCell>
        <mxCell id="14GTsa4ybUtIxwmF2xHG-22" value="" style="line;strokeWidth=1;fillColor=none;align=left;verticalAlign=middle;spacingTop=-1;spacingLeft=3;spacingRight=3;rotatable=0;labelPosition=right;points=[];portConstraint=eastwest;strokeColor=inherit;" vertex="1" parent="14GTsa4ybUtIxwmF2xHG-20">
          <mxGeometry y="26" width="350" height="8" as="geometry" />
        </mxCell>
        <mxCell id="14GTsa4ybUtIxwmF2xHG-23" value="&lt;div&gt;+ enrollStudent(studentId:int, courseId:int): boolean&lt;/div&gt;&lt;div&gt;+ approveEnrollment(enrollmentId:int, adminId:int): boolean&lt;/div&gt;&lt;div&gt;+ rejectEnrollment(enrollmentId:int, adminId:int): boolean&lt;/div&gt;&lt;div&gt;+ cancelEnrollment(enrollmentId:int): boolean&lt;/div&gt;&lt;div&gt;+ getEnrollmentsByStudent(studentId:int): List&amp;lt;Enrollment&amp;gt;&lt;/div&gt;&lt;div&gt;+ getEnrollmentsByCourse(courseId:int): List&amp;lt;Enrollment&amp;gt;&lt;/div&gt;" style="text;strokeColor=none;fillColor=none;align=left;verticalAlign=top;spacingLeft=4;spacingRight=4;overflow=hidden;rotatable=0;points=[[0,0.5],[1,0.5]];portConstraint=eastwest;whiteSpace=wrap;html=1;" vertex="1" parent="14GTsa4ybUtIxwmF2xHG-20">
          <mxGeometry y="34" width="350" height="96" as="geometry" />
        </mxCell>
        <mxCell id="14GTsa4ybUtIxwmF2xHG-24" value="&lt;i&gt;IStudentService&lt;/i&gt;" style="swimlane;fontStyle=1;align=center;verticalAlign=top;childLayout=stackLayout;horizontal=1;startSize=26;horizontalStack=0;resizeParent=1;resizeParentMax=0;resizeLast=0;collapsible=1;marginBottom=0;whiteSpace=wrap;html=1;" vertex="1" parent="1">
          <mxGeometry x="490" y="5520" width="350" height="90" as="geometry" />
        </mxCell>
        <mxCell id="14GTsa4ybUtIxwmF2xHG-26" value="" style="line;strokeWidth=1;fillColor=none;align=left;verticalAlign=middle;spacingTop=-1;spacingLeft=3;spacingRight=3;rotatable=0;labelPosition=right;points=[];portConstraint=eastwest;strokeColor=inherit;" vertex="1" parent="14GTsa4ybUtIxwmF2xHG-24">
          <mxGeometry y="26" width="350" height="8" as="geometry" />
        </mxCell>
        <mxCell id="14GTsa4ybUtIxwmF2xHG-27" value="&lt;div&gt;+ authenticate(username:String, password:String): Student&lt;/div&gt;&lt;div&gt;+ changePassword(studentId:int, oldPassword:String, newPassword:String): boolean&lt;/div&gt;" style="text;strokeColor=none;fillColor=none;align=left;verticalAlign=top;spacingLeft=4;spacingRight=4;overflow=hidden;rotatable=0;points=[[0,0.5],[1,0.5]];portConstraint=eastwest;whiteSpace=wrap;html=1;" vertex="1" parent="14GTsa4ybUtIxwmF2xHG-24">
          <mxGeometry y="34" width="350" height="56" as="geometry" />
        </mxCell>
        <mxCell id="14GTsa4ybUtIxwmF2xHG-28" value="&lt;i&gt;ICourseService&lt;/i&gt;" style="swimlane;fontStyle=1;align=center;verticalAlign=top;childLayout=stackLayout;horizontal=1;startSize=26;horizontalStack=0;resizeParent=1;resizeParentMax=0;resizeLast=0;collapsible=1;marginBottom=0;whiteSpace=wrap;html=1;" vertex="1" parent="1">
          <mxGeometry x="490" y="5660" width="350" height="130" as="geometry" />
        </mxCell>
        <mxCell id="14GTsa4ybUtIxwmF2xHG-30" value="" style="line;strokeWidth=1;fillColor=none;align=left;verticalAlign=middle;spacingTop=-1;spacingLeft=3;spacingRight=3;rotatable=0;labelPosition=right;points=[];portConstraint=eastwest;strokeColor=inherit;" vertex="1" parent="14GTsa4ybUtIxwmF2xHG-28">
          <mxGeometry y="26" width="350" height="8" as="geometry" />
        </mxCell>
        <mxCell id="14GTsa4ybUtIxwmF2xHG-31" value="&lt;div&gt;+ getAllCourses(): List&amp;lt;Course&amp;gt;&lt;/div&gt;&lt;div&gt;+ getCourseById(courseId:int): Course&lt;/div&gt;&lt;div&gt;+ addCourse(course:Course): boolean&lt;/div&gt;&lt;div&gt;+ updateCourse(course:Course): boolean&lt;/div&gt;&lt;div&gt;+ deleteCourse(courseId:int): boolean&lt;/div&gt;&lt;div&gt;+ searchCourses(keyword:String): List&amp;lt;Course&amp;gt;&lt;/div&gt;" style="text;strokeColor=none;fillColor=none;align=left;verticalAlign=top;spacingLeft=4;spacingRight=4;overflow=hidden;rotatable=0;points=[[0,0.5],[1,0.5]];portConstraint=eastwest;whiteSpace=wrap;html=1;" vertex="1" parent="14GTsa4ybUtIxwmF2xHG-28">
          <mxGeometry y="34" width="350" height="96" as="geometry" />
        </mxCell>
        <mxCell id="14GTsa4ybUtIxwmF2xHG-161" style="edgeStyle=orthogonalEdgeStyle;rounded=0;orthogonalLoop=1;jettySize=auto;html=1;" edge="1" parent="1" source="14GTsa4ybUtIxwmF2xHG-32" target="14GTsa4ybUtIxwmF2xHG-100">
          <mxGeometry relative="1" as="geometry">
            <Array as="points">
              <mxPoint x="1410" y="5150" />
              <mxPoint x="1410" y="5950" />
            </Array>
          </mxGeometry>
        </mxCell>
        <mxCell id="14GTsa4ybUtIxwmF2xHG-162" style="edgeStyle=orthogonalEdgeStyle;rounded=0;orthogonalLoop=1;jettySize=auto;html=1;" edge="1" parent="1" source="14GTsa4ybUtIxwmF2xHG-32" target="14GTsa4ybUtIxwmF2xHG-92">
          <mxGeometry relative="1" as="geometry">
            <Array as="points">
              <mxPoint x="1440" y="5140" />
              <mxPoint x="1440" y="5750" />
            </Array>
          </mxGeometry>
        </mxCell>
        <mxCell id="14GTsa4ybUtIxwmF2xHG-32" value="StatisticsService" style="swimlane;fontStyle=1;align=center;verticalAlign=top;childLayout=stackLayout;horizontal=1;startSize=26;horizontalStack=0;resizeParent=1;resizeParentMax=0;resizeLast=0;collapsible=1;marginBottom=0;whiteSpace=wrap;html=1;" vertex="1" parent="1">
          <mxGeometry x="960" y="5070" width="370" height="160" as="geometry" />
        </mxCell>
        <mxCell id="14GTsa4ybUtIxwmF2xHG-33" value="&lt;div&gt;- courseDAO: CourseDAO&lt;/div&gt;&lt;div&gt;- studentDAO: StudentDAO&lt;/div&gt;&lt;div&gt;- enrollmentDAO: EnrollmentDAO&lt;/div&gt;" style="text;strokeColor=none;fillColor=none;align=left;verticalAlign=top;spacingLeft=4;spacingRight=4;overflow=hidden;rotatable=0;points=[[0,0.5],[1,0.5]];portConstraint=eastwest;whiteSpace=wrap;html=1;" vertex="1" parent="14GTsa4ybUtIxwmF2xHG-32">
          <mxGeometry y="26" width="370" height="54" as="geometry" />
        </mxCell>
        <mxCell id="14GTsa4ybUtIxwmF2xHG-34" value="" style="line;strokeWidth=1;fillColor=none;align=left;verticalAlign=middle;spacingTop=-1;spacingLeft=3;spacingRight=3;rotatable=0;labelPosition=right;points=[];portConstraint=eastwest;strokeColor=inherit;" vertex="1" parent="14GTsa4ybUtIxwmF2xHG-32">
          <mxGeometry y="80" width="370" height="8" as="geometry" />
        </mxCell>
        <mxCell id="14GTsa4ybUtIxwmF2xHG-35" value="&lt;div&gt;+ getTotalCounts(): Map&amp;lt;String, Integer&amp;gt;&lt;/div&gt;&lt;div&gt;+ getEnrollmentCounts(): Map&amp;lt;Course, Integer&amp;gt;&lt;/div&gt;&lt;div&gt;+ getTopCourses(limit:int): List&amp;lt;Course&amp;gt;&lt;/div&gt;&lt;div&gt;+ getCoursesWithMinStudents(minStudents:int): List&amp;lt;Course&amp;gt;&lt;/div&gt;" style="text;strokeColor=none;fillColor=none;align=left;verticalAlign=top;spacingLeft=4;spacingRight=4;overflow=hidden;rotatable=0;points=[[0,0.5],[1,0.5]];portConstraint=eastwest;whiteSpace=wrap;html=1;" vertex="1" parent="14GTsa4ybUtIxwmF2xHG-32">
          <mxGeometry y="88" width="370" height="72" as="geometry" />
        </mxCell>
        <mxCell id="14GTsa4ybUtIxwmF2xHG-36" value="AdminService" style="swimlane;fontStyle=1;align=center;verticalAlign=top;childLayout=stackLayout;horizontal=1;startSize=26;horizontalStack=0;resizeParent=1;resizeParentMax=0;resizeLast=0;collapsible=1;marginBottom=0;whiteSpace=wrap;html=1;" vertex="1" parent="1">
          <mxGeometry x="960" y="5240" width="370" height="90" as="geometry" />
        </mxCell>
        <mxCell id="14GTsa4ybUtIxwmF2xHG-37" value="- adminDAO: AdminDAO" style="text;strokeColor=none;fillColor=none;align=left;verticalAlign=top;spacingLeft=4;spacingRight=4;overflow=hidden;rotatable=0;points=[[0,0.5],[1,0.5]];portConstraint=eastwest;whiteSpace=wrap;html=1;" vertex="1" parent="14GTsa4ybUtIxwmF2xHG-36">
          <mxGeometry y="26" width="370" height="26" as="geometry" />
        </mxCell>
        <mxCell id="14GTsa4ybUtIxwmF2xHG-38" value="" style="line;strokeWidth=1;fillColor=none;align=left;verticalAlign=middle;spacingTop=-1;spacingLeft=3;spacingRight=3;rotatable=0;labelPosition=right;points=[];portConstraint=eastwest;strokeColor=inherit;" vertex="1" parent="14GTsa4ybUtIxwmF2xHG-36">
          <mxGeometry y="52" width="370" height="8" as="geometry" />
        </mxCell>
        <mxCell id="14GTsa4ybUtIxwmF2xHG-39" value="+ authenticate(username:String, password:String): Admin" style="text;strokeColor=none;fillColor=none;align=left;verticalAlign=top;spacingLeft=4;spacingRight=4;overflow=hidden;rotatable=0;points=[[0,0.5],[1,0.5]];portConstraint=eastwest;whiteSpace=wrap;html=1;" vertex="1" parent="14GTsa4ybUtIxwmF2xHG-36">
          <mxGeometry y="60" width="370" height="30" as="geometry" />
        </mxCell>
        <mxCell id="14GTsa4ybUtIxwmF2xHG-168" style="edgeStyle=orthogonalEdgeStyle;rounded=0;orthogonalLoop=1;jettySize=auto;html=1;" edge="1" parent="1" source="14GTsa4ybUtIxwmF2xHG-40" target="14GTsa4ybUtIxwmF2xHG-148">
          <mxGeometry relative="1" as="geometry">
            <Array as="points">
              <mxPoint x="1120" y="6420" />
            </Array>
          </mxGeometry>
        </mxCell>
        <mxCell id="14GTsa4ybUtIxwmF2xHG-40" value="CourseService&amp;nbsp;" style="swimlane;fontStyle=1;align=center;verticalAlign=top;childLayout=stackLayout;horizontal=1;startSize=26;horizontalStack=0;resizeParent=1;resizeParentMax=0;resizeLast=0;collapsible=1;marginBottom=0;whiteSpace=wrap;html=1;" vertex="1" parent="1">
          <mxGeometry x="960" y="5660" width="370" height="170" as="geometry" />
        </mxCell>
        <mxCell id="14GTsa4ybUtIxwmF2xHG-41" value="- courseDAO: CourseDAO" style="text;strokeColor=none;fillColor=none;align=left;verticalAlign=top;spacingLeft=4;spacingRight=4;overflow=hidden;rotatable=0;points=[[0,0.5],[1,0.5]];portConstraint=eastwest;whiteSpace=wrap;html=1;" vertex="1" parent="14GTsa4ybUtIxwmF2xHG-40">
          <mxGeometry y="26" width="370" height="26" as="geometry" />
        </mxCell>
        <mxCell id="14GTsa4ybUtIxwmF2xHG-42" value="" style="line;strokeWidth=1;fillColor=none;align=left;verticalAlign=middle;spacingTop=-1;spacingLeft=3;spacingRight=3;rotatable=0;labelPosition=right;points=[];portConstraint=eastwest;strokeColor=inherit;" vertex="1" parent="14GTsa4ybUtIxwmF2xHG-40">
          <mxGeometry y="52" width="370" height="8" as="geometry" />
        </mxCell>
        <mxCell id="14GTsa4ybUtIxwmF2xHG-43" value="&lt;div&gt;+ getAllCourses(): List&amp;lt;Course&amp;gt;&lt;/div&gt;&lt;div&gt;+ getCourseById(courseId:int): Course&lt;/div&gt;&lt;div&gt;+ addCourse(course:Course): boolean&lt;/div&gt;&lt;div&gt;+ updateCourse(course:Course): boolean&lt;/div&gt;&lt;div&gt;+ deleteCourse(courseId:int): boolean&lt;/div&gt;&lt;div&gt;+ searchCourses(keyword:String): List&amp;lt;Course&amp;gt;&lt;/div&gt;" style="text;strokeColor=none;fillColor=none;align=left;verticalAlign=top;spacingLeft=4;spacingRight=4;overflow=hidden;rotatable=0;points=[[0,0.5],[1,0.5]];portConstraint=eastwest;whiteSpace=wrap;html=1;" vertex="1" parent="14GTsa4ybUtIxwmF2xHG-40">
          <mxGeometry y="60" width="370" height="110" as="geometry" />
        </mxCell>
        <mxCell id="14GTsa4ybUtIxwmF2xHG-44" value="EnrollmentService" style="swimlane;fontStyle=1;align=center;verticalAlign=top;childLayout=stackLayout;horizontal=1;startSize=26;horizontalStack=0;resizeParent=1;resizeParentMax=0;resizeLast=0;collapsible=1;marginBottom=0;whiteSpace=wrap;html=1;" vertex="1" parent="1">
          <mxGeometry x="960" y="5340" width="370" height="160" as="geometry" />
        </mxCell>
        <mxCell id="14GTsa4ybUtIxwmF2xHG-45" value="- enrollmentDAO: EnrollmentDAO" style="text;strokeColor=none;fillColor=none;align=left;verticalAlign=top;spacingLeft=4;spacingRight=4;overflow=hidden;rotatable=0;points=[[0,0.5],[1,0.5]];portConstraint=eastwest;whiteSpace=wrap;html=1;" vertex="1" parent="14GTsa4ybUtIxwmF2xHG-44">
          <mxGeometry y="26" width="370" height="26" as="geometry" />
        </mxCell>
        <mxCell id="14GTsa4ybUtIxwmF2xHG-46" value="" style="line;strokeWidth=1;fillColor=none;align=left;verticalAlign=middle;spacingTop=-1;spacingLeft=3;spacingRight=3;rotatable=0;labelPosition=right;points=[];portConstraint=eastwest;strokeColor=inherit;" vertex="1" parent="14GTsa4ybUtIxwmF2xHG-44">
          <mxGeometry y="52" width="370" height="8" as="geometry" />
        </mxCell>
        <mxCell id="14GTsa4ybUtIxwmF2xHG-47" value="&lt;div&gt;+ enrollStudent(studentId:int, courseId:int): boolean&lt;/div&gt;&lt;div&gt;+ approveEnrollment(enrollmentId:int, adminId:int): boolean&lt;/div&gt;&lt;div&gt;+ rejectEnrollment(enrollmentId:int, adminId:int): boolean&lt;/div&gt;&lt;div&gt;+ cancelEnrollment(enrollmentId:int): boolean&lt;/div&gt;&lt;div&gt;+ getEnrollmentsByStudent(studentId:int): List&amp;lt;Enrollment&amp;gt;&lt;/div&gt;&lt;div&gt;+ getEnrollmentsByCourse(courseId:int): List&amp;lt;Enrollment&amp;gt;&lt;/div&gt;" style="text;strokeColor=none;fillColor=none;align=left;verticalAlign=top;spacingLeft=4;spacingRight=4;overflow=hidden;rotatable=0;points=[[0,0.5],[1,0.5]];portConstraint=eastwest;whiteSpace=wrap;html=1;" vertex="1" parent="14GTsa4ybUtIxwmF2xHG-44">
          <mxGeometry y="60" width="370" height="100" as="geometry" />
        </mxCell>
        <mxCell id="14GTsa4ybUtIxwmF2xHG-169" style="edgeStyle=orthogonalEdgeStyle;rounded=0;orthogonalLoop=1;jettySize=auto;html=1;" edge="1" parent="1" source="14GTsa4ybUtIxwmF2xHG-48" target="14GTsa4ybUtIxwmF2xHG-148">
          <mxGeometry relative="1" as="geometry">
            <Array as="points">
              <mxPoint x="1420" y="5530" />
            </Array>
          </mxGeometry>
        </mxCell>
        <mxCell id="14GTsa4ybUtIxwmF2xHG-48" value="StudentService" style="swimlane;fontStyle=1;align=center;verticalAlign=top;childLayout=stackLayout;horizontal=1;startSize=26;horizontalStack=0;resizeParent=1;resizeParentMax=0;resizeLast=0;collapsible=1;marginBottom=0;whiteSpace=wrap;html=1;" vertex="1" parent="1">
          <mxGeometry x="960" y="5520" width="370" height="120" as="geometry" />
        </mxCell>
        <mxCell id="14GTsa4ybUtIxwmF2xHG-49" value="- studentDAO: StudentDAO" style="text;strokeColor=none;fillColor=none;align=left;verticalAlign=top;spacingLeft=4;spacingRight=4;overflow=hidden;rotatable=0;points=[[0,0.5],[1,0.5]];portConstraint=eastwest;whiteSpace=wrap;html=1;" vertex="1" parent="14GTsa4ybUtIxwmF2xHG-48">
          <mxGeometry y="26" width="370" height="26" as="geometry" />
        </mxCell>
        <mxCell id="14GTsa4ybUtIxwmF2xHG-50" value="" style="line;strokeWidth=1;fillColor=none;align=left;verticalAlign=middle;spacingTop=-1;spacingLeft=3;spacingRight=3;rotatable=0;labelPosition=right;points=[];portConstraint=eastwest;strokeColor=inherit;" vertex="1" parent="14GTsa4ybUtIxwmF2xHG-48">
          <mxGeometry y="52" width="370" height="8" as="geometry" />
        </mxCell>
        <mxCell id="14GTsa4ybUtIxwmF2xHG-51" value="&lt;div&gt;+ authenticate(username:String, password:String): Student&lt;/div&gt;&lt;div&gt;+ changePassword(studentId:int, oldPassword:String, newPassword:String): boolean&lt;/div&gt;" style="text;strokeColor=none;fillColor=none;align=left;verticalAlign=top;spacingLeft=4;spacingRight=4;overflow=hidden;rotatable=0;points=[[0,0.5],[1,0.5]];portConstraint=eastwest;whiteSpace=wrap;html=1;" vertex="1" parent="14GTsa4ybUtIxwmF2xHG-48">
          <mxGeometry y="60" width="370" height="60" as="geometry" />
        </mxCell>
        <mxCell id="14GTsa4ybUtIxwmF2xHG-53" value="" style="endArrow=block;dashed=1;endFill=0;endSize=12;html=1;rounded=0;" edge="1" parent="1" source="14GTsa4ybUtIxwmF2xHG-32" target="14GTsa4ybUtIxwmF2xHG-12">
          <mxGeometry width="160" relative="1" as="geometry">
            <mxPoint x="710" y="5270" as="sourcePoint" />
            <mxPoint x="870" y="5270" as="targetPoint" />
          </mxGeometry>
        </mxCell>
        <mxCell id="14GTsa4ybUtIxwmF2xHG-54" value="" style="endArrow=block;dashed=1;endFill=0;endSize=12;html=1;rounded=0;" edge="1" parent="1" source="14GTsa4ybUtIxwmF2xHG-36" target="14GTsa4ybUtIxwmF2xHG-16">
          <mxGeometry width="160" relative="1" as="geometry">
            <mxPoint x="970" y="5148" as="sourcePoint" />
            <mxPoint x="850" y="5141" as="targetPoint" />
          </mxGeometry>
        </mxCell>
        <mxCell id="14GTsa4ybUtIxwmF2xHG-55" value="" style="endArrow=block;dashed=1;endFill=0;endSize=12;html=1;rounded=0;" edge="1" parent="1" source="14GTsa4ybUtIxwmF2xHG-44" target="14GTsa4ybUtIxwmF2xHG-20">
          <mxGeometry width="160" relative="1" as="geometry">
            <mxPoint x="980" y="5158" as="sourcePoint" />
            <mxPoint x="860" y="5151" as="targetPoint" />
          </mxGeometry>
        </mxCell>
        <mxCell id="14GTsa4ybUtIxwmF2xHG-56" value="" style="endArrow=block;dashed=1;endFill=0;endSize=12;html=1;rounded=0;" edge="1" parent="1" source="14GTsa4ybUtIxwmF2xHG-48" target="14GTsa4ybUtIxwmF2xHG-24">
          <mxGeometry width="160" relative="1" as="geometry">
            <mxPoint x="970" y="5428" as="sourcePoint" />
            <mxPoint x="850" y="5427" as="targetPoint" />
          </mxGeometry>
        </mxCell>
        <mxCell id="14GTsa4ybUtIxwmF2xHG-57" value="" style="endArrow=block;dashed=1;endFill=0;endSize=12;html=1;rounded=0;" edge="1" parent="1" source="14GTsa4ybUtIxwmF2xHG-40" target="14GTsa4ybUtIxwmF2xHG-28">
          <mxGeometry width="160" relative="1" as="geometry">
            <mxPoint x="980" y="5438" as="sourcePoint" />
            <mxPoint x="860" y="5437" as="targetPoint" />
          </mxGeometry>
        </mxCell>
        <mxCell id="14GTsa4ybUtIxwmF2xHG-58" value="&lt;b&gt;model&lt;/b&gt;" style="html=1;whiteSpace=wrap;verticalAlign=top;" vertex="1" parent="1">
          <mxGeometry x="1570" y="4892" width="520" height="620" as="geometry" />
        </mxCell>
        <mxCell id="14GTsa4ybUtIxwmF2xHG-59" value="Statistics" style="swimlane;fontStyle=1;align=center;verticalAlign=top;childLayout=stackLayout;horizontal=1;startSize=26;horizontalStack=0;resizeParent=1;resizeParentMax=0;resizeLast=0;collapsible=1;marginBottom=0;whiteSpace=wrap;html=1;" vertex="1" parent="1">
          <mxGeometry x="1614" y="4945" width="270" height="114" as="geometry" />
        </mxCell>
        <mxCell id="14GTsa4ybUtIxwmF2xHG-60" value="&lt;div&gt;- totalCourses: int&lt;/div&gt;&lt;div&gt;- totalStudents: int&lt;/div&gt;&lt;div&gt;- enrollmentsByCourse: Map&amp;lt;Course, Integer&amp;gt;&lt;/div&gt;" style="text;strokeColor=none;fillColor=none;align=left;verticalAlign=top;spacingLeft=4;spacingRight=4;overflow=hidden;rotatable=0;points=[[0,0.5],[1,0.5]];portConstraint=eastwest;whiteSpace=wrap;html=1;" vertex="1" parent="14GTsa4ybUtIxwmF2xHG-59">
          <mxGeometry y="26" width="270" height="54" as="geometry" />
        </mxCell>
        <mxCell id="14GTsa4ybUtIxwmF2xHG-61" value="" style="line;strokeWidth=1;fillColor=none;align=left;verticalAlign=middle;spacingTop=-1;spacingLeft=3;spacingRight=3;rotatable=0;labelPosition=right;points=[];portConstraint=eastwest;strokeColor=inherit;" vertex="1" parent="14GTsa4ybUtIxwmF2xHG-59">
          <mxGeometry y="80" width="270" height="8" as="geometry" />
        </mxCell>
        <mxCell id="14GTsa4ybUtIxwmF2xHG-62" value="+ getters/setters()" style="text;strokeColor=none;fillColor=none;align=left;verticalAlign=top;spacingLeft=4;spacingRight=4;overflow=hidden;rotatable=0;points=[[0,0.5],[1,0.5]];portConstraint=eastwest;whiteSpace=wrap;html=1;" vertex="1" parent="14GTsa4ybUtIxwmF2xHG-59">
          <mxGeometry y="88" width="270" height="26" as="geometry" />
        </mxCell>
        <mxCell id="14GTsa4ybUtIxwmF2xHG-63" value="Enrollment" style="swimlane;fontStyle=1;align=center;verticalAlign=top;childLayout=stackLayout;horizontal=1;startSize=26;horizontalStack=0;resizeParent=1;resizeParentMax=0;resizeLast=0;collapsible=1;marginBottom=0;whiteSpace=wrap;html=1;" vertex="1" parent="1">
          <mxGeometry x="1664" y="5190" width="170" height="124" as="geometry" />
        </mxCell>
        <mxCell id="14GTsa4ybUtIxwmF2xHG-64" value="&lt;div&gt;- enrollmentId: int&lt;/div&gt;&lt;div&gt;- enrollmentDate: Date&lt;/div&gt;&lt;div&gt;- status: String&lt;/div&gt;&lt;div&gt;- approvedAt: Date&lt;/div&gt;" style="text;strokeColor=none;fillColor=none;align=left;verticalAlign=top;spacingLeft=4;spacingRight=4;overflow=hidden;rotatable=0;points=[[0,0.5],[1,0.5]];portConstraint=eastwest;whiteSpace=wrap;html=1;" vertex="1" parent="14GTsa4ybUtIxwmF2xHG-63">
          <mxGeometry y="26" width="170" height="64" as="geometry" />
        </mxCell>
        <mxCell id="14GTsa4ybUtIxwmF2xHG-65" value="" style="line;strokeWidth=1;fillColor=none;align=left;verticalAlign=middle;spacingTop=-1;spacingLeft=3;spacingRight=3;rotatable=0;labelPosition=right;points=[];portConstraint=eastwest;strokeColor=inherit;" vertex="1" parent="14GTsa4ybUtIxwmF2xHG-63">
          <mxGeometry y="90" width="170" height="8" as="geometry" />
        </mxCell>
        <mxCell id="14GTsa4ybUtIxwmF2xHG-66" value="+ getters/setters()" style="text;strokeColor=none;fillColor=none;align=left;verticalAlign=top;spacingLeft=4;spacingRight=4;overflow=hidden;rotatable=0;points=[[0,0.5],[1,0.5]];portConstraint=eastwest;whiteSpace=wrap;html=1;" vertex="1" parent="14GTsa4ybUtIxwmF2xHG-63">
          <mxGeometry y="98" width="170" height="26" as="geometry" />
        </mxCell>
        <mxCell id="14GTsa4ybUtIxwmF2xHG-67" value="Student" style="swimlane;fontStyle=1;align=center;verticalAlign=top;childLayout=stackLayout;horizontal=1;startSize=26;horizontalStack=0;resizeParent=1;resizeParentMax=0;resizeLast=0;collapsible=1;marginBottom=0;whiteSpace=wrap;html=1;" vertex="1" parent="1">
          <mxGeometry x="1938" y="4910" width="130" height="194" as="geometry" />
        </mxCell>
        <mxCell id="14GTsa4ybUtIxwmF2xHG-68" value="&lt;div&gt;- studentId: String&lt;/div&gt;&lt;div&gt;- username: String&lt;/div&gt;&lt;div&gt;-sex: String&lt;/div&gt;&lt;div&gt;- password: String&lt;/div&gt;&lt;div&gt;- fullName: String&lt;/div&gt;&lt;div&gt;- email: String&lt;/div&gt;&lt;div&gt;- phone: String&lt;/div&gt;&lt;div&gt;- address: String&lt;/div&gt;&lt;div&gt;- createdAt: Date&lt;/div&gt;" style="text;strokeColor=none;fillColor=none;align=left;verticalAlign=top;spacingLeft=4;spacingRight=4;overflow=hidden;rotatable=0;points=[[0,0.5],[1,0.5]];portConstraint=eastwest;whiteSpace=wrap;html=1;" vertex="1" parent="14GTsa4ybUtIxwmF2xHG-67">
          <mxGeometry y="26" width="130" height="134" as="geometry" />
        </mxCell>
        <mxCell id="14GTsa4ybUtIxwmF2xHG-69" value="" style="line;strokeWidth=1;fillColor=none;align=left;verticalAlign=middle;spacingTop=-1;spacingLeft=3;spacingRight=3;rotatable=0;labelPosition=right;points=[];portConstraint=eastwest;strokeColor=inherit;" vertex="1" parent="14GTsa4ybUtIxwmF2xHG-67">
          <mxGeometry y="160" width="130" height="8" as="geometry" />
        </mxCell>
        <mxCell id="14GTsa4ybUtIxwmF2xHG-70" value="+ getters/setters()" style="text;strokeColor=none;fillColor=none;align=left;verticalAlign=top;spacingLeft=4;spacingRight=4;overflow=hidden;rotatable=0;points=[[0,0.5],[1,0.5]];portConstraint=eastwest;whiteSpace=wrap;html=1;" vertex="1" parent="14GTsa4ybUtIxwmF2xHG-67">
          <mxGeometry y="168" width="130" height="26" as="geometry" />
        </mxCell>
        <mxCell id="14GTsa4ybUtIxwmF2xHG-71" value="Admin" style="swimlane;fontStyle=1;align=center;verticalAlign=top;childLayout=stackLayout;horizontal=1;startSize=26;horizontalStack=0;resizeParent=1;resizeParentMax=0;resizeLast=0;collapsible=1;marginBottom=0;whiteSpace=wrap;html=1;" vertex="1" parent="1">
          <mxGeometry x="1938" y="5120" width="130" height="154" as="geometry" />
        </mxCell>
        <mxCell id="14GTsa4ybUtIxwmF2xHG-72" value="&lt;div&gt;- adminId: String&lt;/div&gt;&lt;div&gt;- username: String&lt;/div&gt;&lt;div&gt;- password: String&lt;/div&gt;&lt;div&gt;- fullName: String&lt;/div&gt;&lt;div&gt;- email: String&lt;/div&gt;&lt;div&gt;- createdAt: Date&lt;/div&gt;" style="text;strokeColor=none;fillColor=none;align=left;verticalAlign=top;spacingLeft=4;spacingRight=4;overflow=hidden;rotatable=0;points=[[0,0.5],[1,0.5]];portConstraint=eastwest;whiteSpace=wrap;html=1;" vertex="1" parent="14GTsa4ybUtIxwmF2xHG-71">
          <mxGeometry y="26" width="130" height="94" as="geometry" />
        </mxCell>
        <mxCell id="14GTsa4ybUtIxwmF2xHG-73" value="" style="line;strokeWidth=1;fillColor=none;align=left;verticalAlign=middle;spacingTop=-1;spacingLeft=3;spacingRight=3;rotatable=0;labelPosition=right;points=[];portConstraint=eastwest;strokeColor=inherit;" vertex="1" parent="14GTsa4ybUtIxwmF2xHG-71">
          <mxGeometry y="120" width="130" height="8" as="geometry" />
        </mxCell>
        <mxCell id="14GTsa4ybUtIxwmF2xHG-74" value="+ getters/setters()" style="text;strokeColor=none;fillColor=none;align=left;verticalAlign=top;spacingLeft=4;spacingRight=4;overflow=hidden;rotatable=0;points=[[0,0.5],[1,0.5]];portConstraint=eastwest;whiteSpace=wrap;html=1;" vertex="1" parent="14GTsa4ybUtIxwmF2xHG-71">
          <mxGeometry y="128" width="130" height="26" as="geometry" />
        </mxCell>
        <mxCell id="14GTsa4ybUtIxwmF2xHG-75" value="Course&amp;nbsp;" style="swimlane;fontStyle=1;align=center;verticalAlign=top;childLayout=stackLayout;horizontal=1;startSize=26;horizontalStack=0;resizeParent=1;resizeParentMax=0;resizeLast=0;collapsible=1;marginBottom=0;whiteSpace=wrap;html=1;" vertex="1" parent="1">
          <mxGeometry x="1938" y="5296" width="130" height="184" as="geometry" />
        </mxCell>
        <mxCell id="14GTsa4ybUtIxwmF2xHG-76" value="&lt;div&gt;- courseId: String&lt;/div&gt;&lt;div&gt;- courseCode: String&lt;/div&gt;&lt;div&gt;- courseName: String&lt;/div&gt;&lt;div&gt;- description: String&lt;/div&gt;&lt;div&gt;- duration: int&lt;/div&gt;&lt;div&gt;- capacity: int&lt;/div&gt;&lt;div&gt;- createdAt: Date&lt;/div&gt;&lt;div&gt;- updatedAt: Date&lt;/div&gt;" style="text;strokeColor=none;fillColor=none;align=left;verticalAlign=top;spacingLeft=4;spacingRight=4;overflow=hidden;rotatable=0;points=[[0,0.5],[1,0.5]];portConstraint=eastwest;whiteSpace=wrap;html=1;" vertex="1" parent="14GTsa4ybUtIxwmF2xHG-75">
          <mxGeometry y="26" width="130" height="124" as="geometry" />
        </mxCell>
        <mxCell id="14GTsa4ybUtIxwmF2xHG-77" value="" style="line;strokeWidth=1;fillColor=none;align=left;verticalAlign=middle;spacingTop=-1;spacingLeft=3;spacingRight=3;rotatable=0;labelPosition=right;points=[];portConstraint=eastwest;strokeColor=inherit;" vertex="1" parent="14GTsa4ybUtIxwmF2xHG-75">
          <mxGeometry y="150" width="130" height="8" as="geometry" />
        </mxCell>
        <mxCell id="14GTsa4ybUtIxwmF2xHG-78" value="+ getters/setters()" style="text;strokeColor=none;fillColor=none;align=left;verticalAlign=top;spacingLeft=4;spacingRight=4;overflow=hidden;rotatable=0;points=[[0,0.5],[1,0.5]];portConstraint=eastwest;whiteSpace=wrap;html=1;" vertex="1" parent="14GTsa4ybUtIxwmF2xHG-75">
          <mxGeometry y="158" width="130" height="26" as="geometry" />
        </mxCell>
        <mxCell id="14GTsa4ybUtIxwmF2xHG-79" value="" style="endArrow=diamondThin;endFill=1;endSize=24;html=1;rounded=0;" edge="1" parent="1" source="14GTsa4ybUtIxwmF2xHG-67" target="14GTsa4ybUtIxwmF2xHG-63">
          <mxGeometry width="160" relative="1" as="geometry">
            <mxPoint x="1330" y="5270" as="sourcePoint" />
            <mxPoint x="1490" y="5270" as="targetPoint" />
          </mxGeometry>
        </mxCell>
        <mxCell id="14GTsa4ybUtIxwmF2xHG-82" value="1" style="edgeLabel;html=1;align=center;verticalAlign=middle;resizable=0;points=[];" vertex="1" connectable="0" parent="14GTsa4ybUtIxwmF2xHG-79">
          <mxGeometry x="-0.7604" y="2" relative="1" as="geometry">
            <mxPoint as="offset" />
          </mxGeometry>
        </mxCell>
        <mxCell id="14GTsa4ybUtIxwmF2xHG-83" value="1" style="edgeLabel;html=1;align=center;verticalAlign=middle;resizable=0;points=[];" vertex="1" connectable="0" parent="14GTsa4ybUtIxwmF2xHG-79">
          <mxGeometry x="0.4308" y="-1" relative="1" as="geometry">
            <mxPoint x="1" as="offset" />
          </mxGeometry>
        </mxCell>
        <mxCell id="14GTsa4ybUtIxwmF2xHG-80" value="" style="endArrow=diamondThin;endFill=1;endSize=24;html=1;rounded=0;" edge="1" parent="1" source="14GTsa4ybUtIxwmF2xHG-75" target="14GTsa4ybUtIxwmF2xHG-63">
          <mxGeometry width="160" relative="1" as="geometry">
            <mxPoint x="1330" y="5270" as="sourcePoint" />
            <mxPoint x="1490" y="5270" as="targetPoint" />
          </mxGeometry>
        </mxCell>
        <mxCell id="14GTsa4ybUtIxwmF2xHG-84" value="1" style="edgeLabel;html=1;align=center;verticalAlign=middle;resizable=0;points=[];" vertex="1" connectable="0" parent="14GTsa4ybUtIxwmF2xHG-80">
          <mxGeometry x="0.402" y="-3" relative="1" as="geometry">
            <mxPoint as="offset" />
          </mxGeometry>
        </mxCell>
        <mxCell id="14GTsa4ybUtIxwmF2xHG-85" value="1" style="edgeLabel;html=1;align=center;verticalAlign=middle;resizable=0;points=[];" vertex="1" connectable="0" parent="14GTsa4ybUtIxwmF2xHG-80">
          <mxGeometry x="-0.6211" y="-1" relative="1" as="geometry">
            <mxPoint x="1" as="offset" />
          </mxGeometry>
        </mxCell>
        <mxCell id="14GTsa4ybUtIxwmF2xHG-81" value="" style="html=1;verticalAlign=bottom;endArrow=block;curved=0;rounded=0;" edge="1" parent="1" source="14GTsa4ybUtIxwmF2xHG-63" target="14GTsa4ybUtIxwmF2xHG-71">
          <mxGeometry width="80" relative="1" as="geometry">
            <mxPoint x="1370" y="5270" as="sourcePoint" />
            <mxPoint x="1450" y="5270" as="targetPoint" />
          </mxGeometry>
        </mxCell>
        <mxCell id="14GTsa4ybUtIxwmF2xHG-86" value="" style="endArrow=classic;html=1;rounded=0;" edge="1" parent="1" source="14GTsa4ybUtIxwmF2xHG-32" target="14GTsa4ybUtIxwmF2xHG-59">
          <mxGeometry width="50" height="50" relative="1" as="geometry">
            <mxPoint x="1390" y="5290" as="sourcePoint" />
            <mxPoint x="1440" y="5240" as="targetPoint" />
          </mxGeometry>
        </mxCell>
        <mxCell id="14GTsa4ybUtIxwmF2xHG-87" value="&lt;b&gt;dao&lt;/b&gt;" style="html=1;whiteSpace=wrap;verticalAlign=top;" vertex="1" parent="1">
          <mxGeometry x="1450" y="5560" width="1000" height="630" as="geometry" />
        </mxCell>
        <mxCell id="14GTsa4ybUtIxwmF2xHG-88" value="&lt;i&gt;IEnrollmentDAO&lt;/i&gt;" style="swimlane;fontStyle=1;align=center;verticalAlign=top;childLayout=stackLayout;horizontal=1;startSize=26;horizontalStack=0;resizeParent=1;resizeParentMax=0;resizeLast=0;collapsible=1;marginBottom=0;whiteSpace=wrap;html=1;" vertex="1" parent="1">
          <mxGeometry x="1488" y="5593" width="450" height="120" as="geometry" />
        </mxCell>
        <mxCell id="14GTsa4ybUtIxwmF2xHG-90" value="" style="line;strokeWidth=1;fillColor=none;align=left;verticalAlign=middle;spacingTop=-1;spacingLeft=3;spacingRight=3;rotatable=0;labelPosition=right;points=[];portConstraint=eastwest;strokeColor=inherit;" vertex="1" parent="14GTsa4ybUtIxwmF2xHG-88">
          <mxGeometry y="26" width="450" height="8" as="geometry" />
        </mxCell>
        <mxCell id="14GTsa4ybUtIxwmF2xHG-91" value="&lt;div&gt;+ addEnrollment(enrollment:Enrollment): int&lt;/div&gt;&lt;div&gt;+ updateEnrollmentStatus(enrollmentId:int, status:String, approvedBy:int): boolean&lt;/div&gt;&lt;div&gt;+ deleteEnrollment(enrollmentId:int): boolean&lt;/div&gt;&lt;div&gt;+ getEnrollmentsByStudent(studentId:int): List&amp;lt;Enrollment&amp;gt;&lt;/div&gt;&lt;div&gt;+ getEnrollmentsByCourse(courseId:int): List&amp;lt;Enrollment&amp;gt;&lt;/div&gt;" style="text;strokeColor=none;fillColor=none;align=left;verticalAlign=top;spacingLeft=4;spacingRight=4;overflow=hidden;rotatable=0;points=[[0,0.5],[1,0.5]];portConstraint=eastwest;whiteSpace=wrap;html=1;" vertex="1" parent="14GTsa4ybUtIxwmF2xHG-88">
          <mxGeometry y="34" width="450" height="86" as="geometry" />
        </mxCell>
        <mxCell id="14GTsa4ybUtIxwmF2xHG-92" value="&lt;i&gt;IAdminDAO&lt;/i&gt;" style="swimlane;fontStyle=1;align=center;verticalAlign=top;childLayout=stackLayout;horizontal=1;startSize=26;horizontalStack=0;resizeParent=1;resizeParentMax=0;resizeLast=0;collapsible=1;marginBottom=0;whiteSpace=wrap;html=1;" vertex="1" parent="1">
          <mxGeometry x="1488" y="5730" width="450" height="60" as="geometry" />
        </mxCell>
        <mxCell id="14GTsa4ybUtIxwmF2xHG-94" value="" style="line;strokeWidth=1;fillColor=none;align=left;verticalAlign=middle;spacingTop=-1;spacingLeft=3;spacingRight=3;rotatable=0;labelPosition=right;points=[];portConstraint=eastwest;strokeColor=inherit;" vertex="1" parent="14GTsa4ybUtIxwmF2xHG-92">
          <mxGeometry y="26" width="450" height="8" as="geometry" />
        </mxCell>
        <mxCell id="14GTsa4ybUtIxwmF2xHG-95" value="+ getAdminByUsername(username:String): Admin" style="text;strokeColor=none;fillColor=none;align=left;verticalAlign=top;spacingLeft=4;spacingRight=4;overflow=hidden;rotatable=0;points=[[0,0.5],[1,0.5]];portConstraint=eastwest;whiteSpace=wrap;html=1;" vertex="1" parent="14GTsa4ybUtIxwmF2xHG-92">
          <mxGeometry y="34" width="450" height="26" as="geometry" />
        </mxCell>
        <mxCell id="14GTsa4ybUtIxwmF2xHG-96" value="&lt;i&gt;IStudentDAO&lt;/i&gt;" style="swimlane;fontStyle=1;align=center;verticalAlign=top;childLayout=stackLayout;horizontal=1;startSize=26;horizontalStack=0;resizeParent=1;resizeParentMax=0;resizeLast=0;collapsible=1;marginBottom=0;whiteSpace=wrap;html=1;" vertex="1" parent="1">
          <mxGeometry x="1488" y="5810" width="450" height="100" as="geometry" />
        </mxCell>
        <mxCell id="14GTsa4ybUtIxwmF2xHG-97" value="- dbConnection: DBConnection" style="text;strokeColor=none;fillColor=none;align=left;verticalAlign=top;spacingLeft=4;spacingRight=4;overflow=hidden;rotatable=0;points=[[0,0.5],[1,0.5]];portConstraint=eastwest;whiteSpace=wrap;html=1;" vertex="1" parent="14GTsa4ybUtIxwmF2xHG-96">
          <mxGeometry y="26" width="450" height="26" as="geometry" />
        </mxCell>
        <mxCell id="14GTsa4ybUtIxwmF2xHG-98" value="" style="line;strokeWidth=1;fillColor=none;align=left;verticalAlign=middle;spacingTop=-1;spacingLeft=3;spacingRight=3;rotatable=0;labelPosition=right;points=[];portConstraint=eastwest;strokeColor=inherit;" vertex="1" parent="14GTsa4ybUtIxwmF2xHG-96">
          <mxGeometry y="52" width="450" height="8" as="geometry" />
        </mxCell>
        <mxCell id="14GTsa4ybUtIxwmF2xHG-99" value="&lt;div&gt;+ getStudentByUsername(username:String): Student&lt;/div&gt;&lt;div&gt;+ updateStudentPassword(studentId:int, newPassword:String): boolean&lt;/div&gt;" style="text;strokeColor=none;fillColor=none;align=left;verticalAlign=top;spacingLeft=4;spacingRight=4;overflow=hidden;rotatable=0;points=[[0,0.5],[1,0.5]];portConstraint=eastwest;whiteSpace=wrap;html=1;" vertex="1" parent="14GTsa4ybUtIxwmF2xHG-96">
          <mxGeometry y="60" width="450" height="40" as="geometry" />
        </mxCell>
        <mxCell id="14GTsa4ybUtIxwmF2xHG-100" value="&lt;i&gt;ICourseDAO&lt;/i&gt;" style="swimlane;fontStyle=1;align=center;verticalAlign=top;childLayout=stackLayout;horizontal=1;startSize=26;horizontalStack=0;resizeParent=1;resizeParentMax=0;resizeLast=0;collapsible=1;marginBottom=0;whiteSpace=wrap;html=1;" vertex="1" parent="1">
          <mxGeometry x="1490" y="5930" width="450" height="140" as="geometry" />
        </mxCell>
        <mxCell id="14GTsa4ybUtIxwmF2xHG-101" value="- dbConnection: DBConnection" style="text;strokeColor=none;fillColor=none;align=left;verticalAlign=top;spacingLeft=4;spacingRight=4;overflow=hidden;rotatable=0;points=[[0,0.5],[1,0.5]];portConstraint=eastwest;whiteSpace=wrap;html=1;" vertex="1" parent="14GTsa4ybUtIxwmF2xHG-100">
          <mxGeometry y="26" width="450" height="26" as="geometry" />
        </mxCell>
        <mxCell id="14GTsa4ybUtIxwmF2xHG-102" value="" style="line;strokeWidth=1;fillColor=none;align=left;verticalAlign=middle;spacingTop=-1;spacingLeft=3;spacingRight=3;rotatable=0;labelPosition=right;points=[];portConstraint=eastwest;strokeColor=inherit;" vertex="1" parent="14GTsa4ybUtIxwmF2xHG-100">
          <mxGeometry y="52" width="450" height="8" as="geometry" />
        </mxCell>
        <mxCell id="14GTsa4ybUtIxwmF2xHG-103" value="&lt;div&gt;+ getAllCourses(): List&amp;lt;Course&amp;gt;&lt;/div&gt;&lt;div&gt;+ getCourseById(courseId:int): Course&lt;/div&gt;&lt;div&gt;+ addCourse(course:Course): int&lt;/div&gt;&lt;div&gt;+ updateCourse(course:Course): boolean&lt;/div&gt;&lt;div&gt;+ deleteCourse(courseId:int): boolean&lt;/div&gt;" style="text;strokeColor=none;fillColor=none;align=left;verticalAlign=top;spacingLeft=4;spacingRight=4;overflow=hidden;rotatable=0;points=[[0,0.5],[1,0.5]];portConstraint=eastwest;whiteSpace=wrap;html=1;" vertex="1" parent="14GTsa4ybUtIxwmF2xHG-100">
          <mxGeometry y="60" width="450" height="80" as="geometry" />
        </mxCell>
        <mxCell id="14GTsa4ybUtIxwmF2xHG-104" value="EnrollmentDAO" style="swimlane;fontStyle=1;align=center;verticalAlign=top;childLayout=stackLayout;horizontal=1;startSize=26;horizontalStack=0;resizeParent=1;resizeParentMax=0;resizeLast=0;collapsible=1;marginBottom=0;whiteSpace=wrap;html=1;" vertex="1" parent="1">
          <mxGeometry x="1990" y="5583" width="450" height="140" as="geometry" />
        </mxCell>
        <mxCell id="14GTsa4ybUtIxwmF2xHG-105" value="- dbConnection: DBConnection" style="text;strokeColor=none;fillColor=none;align=left;verticalAlign=top;spacingLeft=4;spacingRight=4;overflow=hidden;rotatable=0;points=[[0,0.5],[1,0.5]];portConstraint=eastwest;whiteSpace=wrap;html=1;" vertex="1" parent="14GTsa4ybUtIxwmF2xHG-104">
          <mxGeometry y="26" width="450" height="26" as="geometry" />
        </mxCell>
        <mxCell id="14GTsa4ybUtIxwmF2xHG-106" value="" style="line;strokeWidth=1;fillColor=none;align=left;verticalAlign=middle;spacingTop=-1;spacingLeft=3;spacingRight=3;rotatable=0;labelPosition=right;points=[];portConstraint=eastwest;strokeColor=inherit;" vertex="1" parent="14GTsa4ybUtIxwmF2xHG-104">
          <mxGeometry y="52" width="450" height="8" as="geometry" />
        </mxCell>
        <mxCell id="14GTsa4ybUtIxwmF2xHG-107" value="&lt;div&gt;+ addEnrollment(enrollment:Enrollment): int&lt;/div&gt;&lt;div&gt;+ updateEnrollmentStatus(enrollmentId:int, status:String, approvedBy:int): boolean&lt;/div&gt;&lt;div&gt;+ deleteEnrollment(enrollmentId:int): boolean&lt;/div&gt;&lt;div&gt;+ getEnrollmentsByStudent(studentId:int): List&amp;lt;Enrollment&amp;gt;&lt;/div&gt;&lt;div&gt;+ getEnrollmentsByCourse(courseId:int): List&amp;lt;Enrollment&amp;gt;&lt;/div&gt;" style="text;strokeColor=none;fillColor=none;align=left;verticalAlign=top;spacingLeft=4;spacingRight=4;overflow=hidden;rotatable=0;points=[[0,0.5],[1,0.5]];portConstraint=eastwest;whiteSpace=wrap;html=1;" vertex="1" parent="14GTsa4ybUtIxwmF2xHG-104">
          <mxGeometry y="60" width="450" height="80" as="geometry" />
        </mxCell>
        <mxCell id="14GTsa4ybUtIxwmF2xHG-108" value="StudentDAO" style="swimlane;fontStyle=1;align=center;verticalAlign=top;childLayout=stackLayout;horizontal=1;startSize=26;horizontalStack=0;resizeParent=1;resizeParentMax=0;resizeLast=0;collapsible=1;marginBottom=0;whiteSpace=wrap;html=1;" vertex="1" parent="1">
          <mxGeometry x="1990" y="5870" width="450" height="100" as="geometry" />
        </mxCell>
        <mxCell id="14GTsa4ybUtIxwmF2xHG-109" value="- dbConnection: DBConnection" style="text;strokeColor=none;fillColor=none;align=left;verticalAlign=top;spacingLeft=4;spacingRight=4;overflow=hidden;rotatable=0;points=[[0,0.5],[1,0.5]];portConstraint=eastwest;whiteSpace=wrap;html=1;" vertex="1" parent="14GTsa4ybUtIxwmF2xHG-108">
          <mxGeometry y="26" width="450" height="26" as="geometry" />
        </mxCell>
        <mxCell id="14GTsa4ybUtIxwmF2xHG-110" value="" style="line;strokeWidth=1;fillColor=none;align=left;verticalAlign=middle;spacingTop=-1;spacingLeft=3;spacingRight=3;rotatable=0;labelPosition=right;points=[];portConstraint=eastwest;strokeColor=inherit;" vertex="1" parent="14GTsa4ybUtIxwmF2xHG-108">
          <mxGeometry y="52" width="450" height="8" as="geometry" />
        </mxCell>
        <mxCell id="14GTsa4ybUtIxwmF2xHG-111" value="&lt;div&gt;+ getStudentByUsername(username:String): Student&lt;/div&gt;&lt;div&gt;+ updateStudentPassword(studentId:int, newPassword:String): boolean&lt;/div&gt;" style="text;strokeColor=none;fillColor=none;align=left;verticalAlign=top;spacingLeft=4;spacingRight=4;overflow=hidden;rotatable=0;points=[[0,0.5],[1,0.5]];portConstraint=eastwest;whiteSpace=wrap;html=1;" vertex="1" parent="14GTsa4ybUtIxwmF2xHG-108">
          <mxGeometry y="60" width="450" height="40" as="geometry" />
        </mxCell>
        <mxCell id="14GTsa4ybUtIxwmF2xHG-112" value="AdminDAO" style="swimlane;fontStyle=1;align=center;verticalAlign=top;childLayout=stackLayout;horizontal=1;startSize=26;horizontalStack=0;resizeParent=1;resizeParentMax=0;resizeLast=0;collapsible=1;marginBottom=0;whiteSpace=wrap;html=1;" vertex="1" parent="1">
          <mxGeometry x="1990" y="5744" width="450" height="86" as="geometry" />
        </mxCell>
        <mxCell id="14GTsa4ybUtIxwmF2xHG-113" value="- dbConnection: DBConnection" style="text;strokeColor=none;fillColor=none;align=left;verticalAlign=top;spacingLeft=4;spacingRight=4;overflow=hidden;rotatable=0;points=[[0,0.5],[1,0.5]];portConstraint=eastwest;whiteSpace=wrap;html=1;" vertex="1" parent="14GTsa4ybUtIxwmF2xHG-112">
          <mxGeometry y="26" width="450" height="26" as="geometry" />
        </mxCell>
        <mxCell id="14GTsa4ybUtIxwmF2xHG-114" value="" style="line;strokeWidth=1;fillColor=none;align=left;verticalAlign=middle;spacingTop=-1;spacingLeft=3;spacingRight=3;rotatable=0;labelPosition=right;points=[];portConstraint=eastwest;strokeColor=inherit;" vertex="1" parent="14GTsa4ybUtIxwmF2xHG-112">
          <mxGeometry y="52" width="450" height="8" as="geometry" />
        </mxCell>
        <mxCell id="14GTsa4ybUtIxwmF2xHG-115" value="+ getAdminByUsername(username:String): Admin" style="text;strokeColor=none;fillColor=none;align=left;verticalAlign=top;spacingLeft=4;spacingRight=4;overflow=hidden;rotatable=0;points=[[0,0.5],[1,0.5]];portConstraint=eastwest;whiteSpace=wrap;html=1;" vertex="1" parent="14GTsa4ybUtIxwmF2xHG-112">
          <mxGeometry y="60" width="450" height="26" as="geometry" />
        </mxCell>
        <mxCell id="14GTsa4ybUtIxwmF2xHG-116" value="CourseDAO" style="swimlane;fontStyle=1;align=center;verticalAlign=top;childLayout=stackLayout;horizontal=1;startSize=26;horizontalStack=0;resizeParent=1;resizeParentMax=0;resizeLast=0;collapsible=1;marginBottom=0;whiteSpace=wrap;html=1;" vertex="1" parent="1">
          <mxGeometry x="1990" y="6010" width="450" height="140" as="geometry" />
        </mxCell>
        <mxCell id="14GTsa4ybUtIxwmF2xHG-117" value="- dbConnection: DBConnection" style="text;strokeColor=none;fillColor=none;align=left;verticalAlign=top;spacingLeft=4;spacingRight=4;overflow=hidden;rotatable=0;points=[[0,0.5],[1,0.5]];portConstraint=eastwest;whiteSpace=wrap;html=1;" vertex="1" parent="14GTsa4ybUtIxwmF2xHG-116">
          <mxGeometry y="26" width="450" height="26" as="geometry" />
        </mxCell>
        <mxCell id="14GTsa4ybUtIxwmF2xHG-118" value="" style="line;strokeWidth=1;fillColor=none;align=left;verticalAlign=middle;spacingTop=-1;spacingLeft=3;spacingRight=3;rotatable=0;labelPosition=right;points=[];portConstraint=eastwest;strokeColor=inherit;" vertex="1" parent="14GTsa4ybUtIxwmF2xHG-116">
          <mxGeometry y="52" width="450" height="8" as="geometry" />
        </mxCell>
        <mxCell id="14GTsa4ybUtIxwmF2xHG-119" value="&lt;div&gt;+ getAllCourses(): List&amp;lt;Course&amp;gt;&lt;/div&gt;&lt;div&gt;+ getCourseById(courseId:int): Course&lt;/div&gt;&lt;div&gt;+ addCourse(course:Course): int&lt;/div&gt;&lt;div&gt;+ updateCourse(course:Course): boolean&lt;/div&gt;&lt;div&gt;+ deleteCourse(courseId:int): boolean&lt;/div&gt;" style="text;strokeColor=none;fillColor=none;align=left;verticalAlign=top;spacingLeft=4;spacingRight=4;overflow=hidden;rotatable=0;points=[[0,0.5],[1,0.5]];portConstraint=eastwest;whiteSpace=wrap;html=1;" vertex="1" parent="14GTsa4ybUtIxwmF2xHG-116">
          <mxGeometry y="60" width="450" height="80" as="geometry" />
        </mxCell>
        <mxCell id="14GTsa4ybUtIxwmF2xHG-120" value="" style="endArrow=block;dashed=1;endFill=0;endSize=12;html=1;rounded=0;" edge="1" parent="1" source="14GTsa4ybUtIxwmF2xHG-104" target="14GTsa4ybUtIxwmF2xHG-88">
          <mxGeometry width="160" relative="1" as="geometry">
            <mxPoint x="1730" y="5880" as="sourcePoint" />
            <mxPoint x="1890" y="5880" as="targetPoint" />
          </mxGeometry>
        </mxCell>
        <mxCell id="14GTsa4ybUtIxwmF2xHG-121" value="" style="endArrow=block;dashed=1;endFill=0;endSize=12;html=1;rounded=0;entryX=1;entryY=0.25;entryDx=0;entryDy=0;" edge="1" parent="1" source="14GTsa4ybUtIxwmF2xHG-112" target="14GTsa4ybUtIxwmF2xHG-92">
          <mxGeometry width="160" relative="1" as="geometry">
            <mxPoint x="1920" y="5659" as="sourcePoint" />
            <mxPoint x="1840" y="5657" as="targetPoint" />
          </mxGeometry>
        </mxCell>
        <mxCell id="14GTsa4ybUtIxwmF2xHG-122" value="" style="endArrow=block;dashed=1;endFill=0;endSize=12;html=1;rounded=0;" edge="1" parent="1" source="14GTsa4ybUtIxwmF2xHG-108" target="14GTsa4ybUtIxwmF2xHG-96">
          <mxGeometry width="160" relative="1" as="geometry">
            <mxPoint x="1930" y="5669" as="sourcePoint" />
            <mxPoint x="1850" y="5667" as="targetPoint" />
          </mxGeometry>
        </mxCell>
        <mxCell id="14GTsa4ybUtIxwmF2xHG-123" value="" style="endArrow=block;dashed=1;endFill=0;endSize=12;html=1;rounded=0;" edge="1" parent="1" source="14GTsa4ybUtIxwmF2xHG-116" target="14GTsa4ybUtIxwmF2xHG-100">
          <mxGeometry width="160" relative="1" as="geometry">
            <mxPoint x="1940" y="5679" as="sourcePoint" />
            <mxPoint x="1860" y="5677" as="targetPoint" />
          </mxGeometry>
        </mxCell>
        <mxCell id="14GTsa4ybUtIxwmF2xHG-124" value="&lt;b&gt;config&lt;/b&gt;" style="html=1;whiteSpace=wrap;verticalAlign=top;" vertex="1" parent="1">
          <mxGeometry x="2474" y="5570" width="420" height="370" as="geometry" />
        </mxCell>
        <mxCell id="14GTsa4ybUtIxwmF2xHG-125" value="DBConnection" style="swimlane;fontStyle=1;align=center;verticalAlign=top;childLayout=stackLayout;horizontal=1;startSize=26;horizontalStack=0;resizeParent=1;resizeParentMax=0;resizeLast=0;collapsible=1;marginBottom=0;whiteSpace=wrap;html=1;" vertex="1" parent="1">
          <mxGeometry x="2604" y="5603" width="180" height="100" as="geometry" />
        </mxCell>
        <mxCell id="14GTsa4ybUtIxwmF2xHG-126" value="- connection: Connection" style="text;strokeColor=none;fillColor=none;align=left;verticalAlign=top;spacingLeft=4;spacingRight=4;overflow=hidden;rotatable=0;points=[[0,0.5],[1,0.5]];portConstraint=eastwest;whiteSpace=wrap;html=1;" vertex="1" parent="14GTsa4ybUtIxwmF2xHG-125">
          <mxGeometry y="26" width="180" height="26" as="geometry" />
        </mxCell>
        <mxCell id="14GTsa4ybUtIxwmF2xHG-127" value="" style="line;strokeWidth=1;fillColor=none;align=left;verticalAlign=middle;spacingTop=-1;spacingLeft=3;spacingRight=3;rotatable=0;labelPosition=right;points=[];portConstraint=eastwest;strokeColor=inherit;" vertex="1" parent="14GTsa4ybUtIxwmF2xHG-125">
          <mxGeometry y="52" width="180" height="8" as="geometry" />
        </mxCell>
        <mxCell id="14GTsa4ybUtIxwmF2xHG-128" value="&lt;div&gt;+ getConnection(): Connection&lt;/div&gt;&lt;div&gt;+ closeConnection(): void&lt;/div&gt;" style="text;strokeColor=none;fillColor=none;align=left;verticalAlign=top;spacingLeft=4;spacingRight=4;overflow=hidden;rotatable=0;points=[[0,0.5],[1,0.5]];portConstraint=eastwest;whiteSpace=wrap;html=1;" vertex="1" parent="14GTsa4ybUtIxwmF2xHG-125">
          <mxGeometry y="60" width="180" height="40" as="geometry" />
        </mxCell>
        <mxCell id="14GTsa4ybUtIxwmF2xHG-129" value="AppConfig" style="swimlane;fontStyle=1;align=center;verticalAlign=top;childLayout=stackLayout;horizontal=1;startSize=26;horizontalStack=0;resizeParent=1;resizeParentMax=0;resizeLast=0;collapsible=1;marginBottom=0;whiteSpace=wrap;html=1;" vertex="1" parent="1">
          <mxGeometry x="2604" y="5760" width="186" height="120" as="geometry" />
        </mxCell>
        <mxCell id="14GTsa4ybUtIxwmF2xHG-130" value="- properties: Properties" style="text;strokeColor=none;fillColor=none;align=left;verticalAlign=top;spacingLeft=4;spacingRight=4;overflow=hidden;rotatable=0;points=[[0,0.5],[1,0.5]];portConstraint=eastwest;whiteSpace=wrap;html=1;" vertex="1" parent="14GTsa4ybUtIxwmF2xHG-129">
          <mxGeometry y="26" width="186" height="26" as="geometry" />
        </mxCell>
        <mxCell id="14GTsa4ybUtIxwmF2xHG-131" value="" style="line;strokeWidth=1;fillColor=none;align=left;verticalAlign=middle;spacingTop=-1;spacingLeft=3;spacingRight=3;rotatable=0;labelPosition=right;points=[];portConstraint=eastwest;strokeColor=inherit;" vertex="1" parent="14GTsa4ybUtIxwmF2xHG-129">
          <mxGeometry y="52" width="186" height="8" as="geometry" />
        </mxCell>
        <mxCell id="14GTsa4ybUtIxwmF2xHG-132" value="&lt;div&gt;+ getDbUrl(): String&lt;/div&gt;&lt;div&gt;+ getDbUsername(): String&lt;/div&gt;&lt;div&gt;+ getDbPassword(): String&lt;/div&gt;" style="text;strokeColor=none;fillColor=none;align=left;verticalAlign=top;spacingLeft=4;spacingRight=4;overflow=hidden;rotatable=0;points=[[0,0.5],[1,0.5]];portConstraint=eastwest;whiteSpace=wrap;html=1;" vertex="1" parent="14GTsa4ybUtIxwmF2xHG-129">
          <mxGeometry y="60" width="186" height="60" as="geometry" />
        </mxCell>
        <mxCell id="14GTsa4ybUtIxwmF2xHG-133" value="" style="endArrow=classic;html=1;rounded=0;" edge="1" parent="1" source="14GTsa4ybUtIxwmF2xHG-125" target="14GTsa4ybUtIxwmF2xHG-129">
          <mxGeometry width="50" height="50" relative="1" as="geometry">
            <mxPoint x="2470" y="5900" as="sourcePoint" />
            <mxPoint x="2520" y="5850" as="targetPoint" />
          </mxGeometry>
        </mxCell>
        <mxCell id="14GTsa4ybUtIxwmF2xHG-134" value="" style="endArrow=classic;html=1;rounded=0;" edge="1" parent="1" source="14GTsa4ybUtIxwmF2xHG-104" target="14GTsa4ybUtIxwmF2xHG-125">
          <mxGeometry width="50" height="50" relative="1" as="geometry">
            <mxPoint x="2470" y="5900" as="sourcePoint" />
            <mxPoint x="2520" y="5850" as="targetPoint" />
          </mxGeometry>
        </mxCell>
        <mxCell id="14GTsa4ybUtIxwmF2xHG-135" value="" style="endArrow=classic;html=1;rounded=0;" edge="1" parent="1" source="14GTsa4ybUtIxwmF2xHG-112" target="14GTsa4ybUtIxwmF2xHG-125">
          <mxGeometry width="50" height="50" relative="1" as="geometry">
            <mxPoint x="2370" y="5663" as="sourcePoint" />
            <mxPoint x="2614" y="5663" as="targetPoint" />
          </mxGeometry>
        </mxCell>
        <mxCell id="14GTsa4ybUtIxwmF2xHG-136" value="" style="endArrow=classic;html=1;rounded=0;" edge="1" parent="1" source="14GTsa4ybUtIxwmF2xHG-108" target="14GTsa4ybUtIxwmF2xHG-125">
          <mxGeometry width="50" height="50" relative="1" as="geometry">
            <mxPoint x="2380" y="5673" as="sourcePoint" />
            <mxPoint x="2624" y="5673" as="targetPoint" />
          </mxGeometry>
        </mxCell>
        <mxCell id="14GTsa4ybUtIxwmF2xHG-137" value="" style="endArrow=classic;html=1;rounded=0;" edge="1" parent="1" source="14GTsa4ybUtIxwmF2xHG-116" target="14GTsa4ybUtIxwmF2xHG-125">
          <mxGeometry width="50" height="50" relative="1" as="geometry">
            <mxPoint x="2390" y="5683" as="sourcePoint" />
            <mxPoint x="2634" y="5683" as="targetPoint" />
          </mxGeometry>
        </mxCell>
        <mxCell id="14GTsa4ybUtIxwmF2xHG-138" value="&lt;b&gt;util&lt;/b&gt;" style="html=1;whiteSpace=wrap;verticalAlign=top;" vertex="1" parent="1">
          <mxGeometry x="1910" y="6300" width="510" height="320" as="geometry" />
        </mxCell>
        <mxCell id="14GTsa4ybUtIxwmF2xHG-139" value="PasswordUtil" style="swimlane;fontStyle=1;align=center;verticalAlign=top;childLayout=stackLayout;horizontal=1;startSize=26;horizontalStack=0;resizeParent=1;resizeParentMax=0;resizeLast=0;collapsible=1;marginBottom=0;whiteSpace=wrap;html=1;" vertex="1" parent="1">
          <mxGeometry x="1980" y="6350" width="380" height="80" as="geometry" />
        </mxCell>
        <mxCell id="14GTsa4ybUtIxwmF2xHG-141" value="" style="line;strokeWidth=1;fillColor=none;align=left;verticalAlign=middle;spacingTop=-1;spacingLeft=3;spacingRight=3;rotatable=0;labelPosition=right;points=[];portConstraint=eastwest;strokeColor=inherit;" vertex="1" parent="14GTsa4ybUtIxwmF2xHG-139">
          <mxGeometry y="26" width="380" height="8" as="geometry" />
        </mxCell>
        <mxCell id="14GTsa4ybUtIxwmF2xHG-142" value="&lt;div&gt;+ hashPassword(password:String): String&lt;/div&gt;&lt;div&gt;+ verifyPassword(inputPassword:String, storedHash:String): boolean&lt;/div&gt;" style="text;strokeColor=none;fillColor=none;align=left;verticalAlign=top;spacingLeft=4;spacingRight=4;overflow=hidden;rotatable=0;points=[[0,0.5],[1,0.5]];portConstraint=eastwest;whiteSpace=wrap;html=1;" vertex="1" parent="14GTsa4ybUtIxwmF2xHG-139">
          <mxGeometry y="34" width="380" height="46" as="geometry" />
        </mxCell>
        <mxCell id="14GTsa4ybUtIxwmF2xHG-143" value="DateUtil" style="swimlane;fontStyle=1;align=center;verticalAlign=top;childLayout=stackLayout;horizontal=1;startSize=26;horizontalStack=0;resizeParent=1;resizeParentMax=0;resizeLast=0;collapsible=1;marginBottom=0;whiteSpace=wrap;html=1;" vertex="1" parent="1">
          <mxGeometry x="2040" y="6480" width="250" height="70" as="geometry" />
        </mxCell>
        <mxCell id="14GTsa4ybUtIxwmF2xHG-145" value="" style="line;strokeWidth=1;fillColor=none;align=left;verticalAlign=middle;spacingTop=-1;spacingLeft=3;spacingRight=3;rotatable=0;labelPosition=right;points=[];portConstraint=eastwest;strokeColor=inherit;" vertex="1" parent="14GTsa4ybUtIxwmF2xHG-143">
          <mxGeometry y="26" width="250" height="8" as="geometry" />
        </mxCell>
        <mxCell id="14GTsa4ybUtIxwmF2xHG-146" value="+ formatDate(date:Date): String&lt;br&gt;+ parseDate(dateString:String): Date" style="text;strokeColor=none;fillColor=none;align=left;verticalAlign=top;spacingLeft=4;spacingRight=4;overflow=hidden;rotatable=0;points=[[0,0.5],[1,0.5]];portConstraint=eastwest;whiteSpace=wrap;html=1;" vertex="1" parent="14GTsa4ybUtIxwmF2xHG-143">
          <mxGeometry y="34" width="250" height="36" as="geometry" />
        </mxCell>
        <mxCell id="14GTsa4ybUtIxwmF2xHG-147" value="&lt;b&gt;validate&lt;/b&gt;" style="html=1;whiteSpace=wrap;verticalAlign=top;" vertex="1" parent="1">
          <mxGeometry x="1310" y="6360" width="420" height="180" as="geometry" />
        </mxCell>
        <mxCell id="14GTsa4ybUtIxwmF2xHG-148" value="InputValidator" style="swimlane;fontStyle=1;align=center;verticalAlign=top;childLayout=stackLayout;horizontal=1;startSize=26;horizontalStack=0;resizeParent=1;resizeParentMax=0;resizeLast=0;collapsible=1;marginBottom=0;whiteSpace=wrap;html=1;" vertex="1" parent="1">
          <mxGeometry x="1340" y="6400" width="360" height="120" as="geometry" />
        </mxCell>
        <mxCell id="14GTsa4ybUtIxwmF2xHG-150" value="" style="line;strokeWidth=1;fillColor=none;align=left;verticalAlign=middle;spacingTop=-1;spacingLeft=3;spacingRight=3;rotatable=0;labelPosition=right;points=[];portConstraint=eastwest;strokeColor=inherit;" vertex="1" parent="14GTsa4ybUtIxwmF2xHG-148">
          <mxGeometry y="26" width="360" height="8" as="geometry" />
        </mxCell>
        <mxCell id="14GTsa4ybUtIxwmF2xHG-151" value="&lt;div&gt;+ validateUsername(username:String): boolean&lt;/div&gt;&lt;div&gt;+ validatePassword(password:String): boolean&lt;/div&gt;&lt;div&gt;+ validateEmail(email:String): boolean&lt;/div&gt;&lt;div&gt;+ validatePhone(phone:String): boolean&lt;/div&gt;&lt;div&gt;+ validateCourseCode(courseCode:String): boolean&lt;/div&gt;" style="text;strokeColor=none;fillColor=none;align=left;verticalAlign=top;spacingLeft=4;spacingRight=4;overflow=hidden;rotatable=0;points=[[0,0.5],[1,0.5]];portConstraint=eastwest;whiteSpace=wrap;html=1;" vertex="1" parent="14GTsa4ybUtIxwmF2xHG-148">
          <mxGeometry y="34" width="360" height="86" as="geometry" />
        </mxCell>
        <mxCell id="14GTsa4ybUtIxwmF2xHG-152" style="edgeStyle=orthogonalEdgeStyle;rounded=0;orthogonalLoop=1;jettySize=auto;html=1;" edge="1" parent="1" source="14GTsa4ybUtIxwmF2xHG-5" target="14GTsa4ybUtIxwmF2xHG-148">
          <mxGeometry relative="1" as="geometry">
            <Array as="points">
              <mxPoint x="390" y="5307" />
              <mxPoint x="390" y="6470" />
            </Array>
          </mxGeometry>
        </mxCell>
        <mxCell id="14GTsa4ybUtIxwmF2xHG-153" style="edgeStyle=orthogonalEdgeStyle;rounded=0;orthogonalLoop=1;jettySize=auto;html=1;" edge="1" parent="1" source="14GTsa4ybUtIxwmF2xHG-9" target="14GTsa4ybUtIxwmF2xHG-148">
          <mxGeometry relative="1" as="geometry">
            <Array as="points">
              <mxPoint x="250" y="6500" />
            </Array>
          </mxGeometry>
        </mxCell>
        <mxCell id="14GTsa4ybUtIxwmF2xHG-154" style="edgeStyle=orthogonalEdgeStyle;rounded=0;orthogonalLoop=1;jettySize=auto;html=1;" edge="1" parent="1" source="14GTsa4ybUtIxwmF2xHG-33" target="14GTsa4ybUtIxwmF2xHG-88">
          <mxGeometry relative="1" as="geometry">
            <Array as="points">
              <mxPoint x="1430" y="5123" />
              <mxPoint x="1430" y="5610" />
            </Array>
          </mxGeometry>
        </mxCell>
        <mxCell id="14GTsa4ybUtIxwmF2xHG-155" style="edgeStyle=orthogonalEdgeStyle;rounded=0;orthogonalLoop=1;jettySize=auto;html=1;" edge="1" parent="1" source="14GTsa4ybUtIxwmF2xHG-36" target="14GTsa4ybUtIxwmF2xHG-92">
          <mxGeometry relative="1" as="geometry">
            <Array as="points">
              <mxPoint x="1390" y="5285" />
              <mxPoint x="1390" y="5760" />
            </Array>
          </mxGeometry>
        </mxCell>
        <mxCell id="14GTsa4ybUtIxwmF2xHG-156" style="edgeStyle=orthogonalEdgeStyle;rounded=0;orthogonalLoop=1;jettySize=auto;html=1;" edge="1" parent="1">
          <mxGeometry relative="1" as="geometry">
            <mxPoint x="1332" y="5457.5" as="sourcePoint" />
            <mxPoint x="1490" y="5637.5" as="targetPoint" />
            <Array as="points">
              <mxPoint x="1370" y="5458" />
              <mxPoint x="1370" y="5638" />
            </Array>
          </mxGeometry>
        </mxCell>
        <mxCell id="14GTsa4ybUtIxwmF2xHG-157" style="edgeStyle=orthogonalEdgeStyle;rounded=0;orthogonalLoop=1;jettySize=auto;html=1;" edge="1" parent="1" source="14GTsa4ybUtIxwmF2xHG-48" target="14GTsa4ybUtIxwmF2xHG-96">
          <mxGeometry relative="1" as="geometry">
            <Array as="points">
              <mxPoint x="1360" y="5580" />
              <mxPoint x="1360" y="5890" />
            </Array>
          </mxGeometry>
        </mxCell>
        <mxCell id="14GTsa4ybUtIxwmF2xHG-158" style="edgeStyle=orthogonalEdgeStyle;rounded=0;orthogonalLoop=1;jettySize=auto;html=1;" edge="1" parent="1" source="14GTsa4ybUtIxwmF2xHG-40" target="14GTsa4ybUtIxwmF2xHG-100">
          <mxGeometry relative="1" as="geometry">
            <Array as="points">
              <mxPoint x="1145" y="6010" />
            </Array>
          </mxGeometry>
        </mxCell>
        <mxCell id="14GTsa4ybUtIxwmF2xHG-164" style="edgeStyle=orthogonalEdgeStyle;rounded=0;orthogonalLoop=1;jettySize=auto;html=1;" edge="1" parent="1" source="14GTsa4ybUtIxwmF2xHG-48" target="14GTsa4ybUtIxwmF2xHG-139">
          <mxGeometry relative="1" as="geometry">
            <Array as="points">
              <mxPoint x="1350" y="5570" />
              <mxPoint x="1350" y="6280" />
              <mxPoint x="2150" y="6280" />
            </Array>
          </mxGeometry>
        </mxCell>
        <mxCell id="14GTsa4ybUtIxwmF2xHG-163" style="edgeStyle=orthogonalEdgeStyle;rounded=0;orthogonalLoop=1;jettySize=auto;html=1;" edge="1" parent="1" source="14GTsa4ybUtIxwmF2xHG-36" target="14GTsa4ybUtIxwmF2xHG-139">
          <mxGeometry relative="1" as="geometry">
            <Array as="points">
              <mxPoint x="1380" y="5250" />
              <mxPoint x="1380" y="6260" />
              <mxPoint x="2220" y="6260" />
            </Array>
          </mxGeometry>
        </mxCell>
        <mxCell id="14GTsa4ybUtIxwmF2xHG-166" style="edgeStyle=orthogonalEdgeStyle;rounded=0;orthogonalLoop=1;jettySize=auto;html=1;" edge="1" parent="1" source="14GTsa4ybUtIxwmF2xHG-40" target="14GTsa4ybUtIxwmF2xHG-143">
          <mxGeometry relative="1" as="geometry">
            <Array as="points">
              <mxPoint x="1090" y="6670" />
              <mxPoint x="2165" y="6670" />
            </Array>
          </mxGeometry>
        </mxCell>
        <mxCell id="14GTsa4ybUtIxwmF2xHG-167" style="edgeStyle=orthogonalEdgeStyle;rounded=0;orthogonalLoop=1;jettySize=auto;html=1;" edge="1" parent="1" source="14GTsa4ybUtIxwmF2xHG-44" target="14GTsa4ybUtIxwmF2xHG-143">
          <mxGeometry relative="1" as="geometry">
            <Array as="points">
              <mxPoint x="1400" y="5420" />
              <mxPoint x="1400" y="6240" />
              <mxPoint x="2490" y="6240" />
              <mxPoint x="2490" y="6515" />
            </Array>
          </mxGeometry>
        </mxCell>
      </root>
    </mxGraphModel>
  </diagram>
</mxfile>
